<svg width="26" height="26" viewBox="0 0 26 26" fill="none" xmlns="http://www.w3.org/2000/svg">
<path d="M13.0051 19.889C13.6003 19.2625 14.204 18.6591 14.7738 18.021C16.441 16.1715 17.9567 14.2189 19.1302 12.0034C21.3772 7.75928 18.3504 2.89554 14.2455 2.14988C10.3598 1.44342 6.55558 4.26311 6.1457 8.20207C6.11494 8.49418 6.08803 8.78784 6.07803 9.08149C6.05881 9.62729 5.70584 10.0209 5.21753 10.0209C4.70307 10.0209 4.33395 9.61883 4.34395 9.06073C4.38163 7.02361 4.99221 5.17866 6.28028 3.59432C8.26121 1.15745 10.8435 0.0466417 13.9702 0.365663C17.7898 0.755408 20.925 3.8749 21.5418 7.71469C21.8678 9.74567 21.3303 11.5637 20.3883 13.3149C19.0764 15.7479 17.3284 17.8504 15.4421 19.849C14.8792 20.4448 14.294 21.0191 13.7026 21.5864C13.2066 22.0614 12.8083 22.0561 12.2923 21.5902C9.68231 19.2348 7.33765 16.6596 5.65355 13.5416C5.50744 13.2718 5.37133 12.9951 5.25059 12.7137C5.04604 12.2371 5.2306 11.7574 5.67969 11.5553C5.78132 11.5064 5.89176 11.4786 6.0044 11.4735C6.11703 11.4684 6.22954 11.4861 6.33517 11.5255C6.4408 11.5649 6.53739 11.6253 6.61913 11.7029C6.70088 11.7805 6.7661 11.8738 6.81089 11.9773C8.21968 14.9753 10.3875 17.3853 12.7398 19.6538C12.8144 19.7245 12.8929 19.7883 13.0051 19.889Z" fill="#D5569A" stroke="#D5569A" stroke-width="0.5"/>
<path d="M3.25537 23.9422H22.7402C22.3003 23.1681 21.8797 22.4278 21.4583 21.6883C21.0015 20.8888 20.5355 20.0924 20.0871 19.2891C19.7942 18.7663 19.9203 18.2459 20.3794 17.9999C20.8385 17.7539 21.3022 17.923 21.599 18.445C22.7192 20.3986 23.8363 22.354 24.9503 24.3112C25.3471 25.0115 24.9503 25.6849 24.1474 25.6856C16.7405 25.6887 9.33377 25.6887 1.92732 25.6856C1.01529 25.6856 0.635408 25.0245 1.08143 24.2427C2.18058 22.3209 3.27973 20.3991 4.37888 18.4773C4.63957 18.0222 4.98331 17.8231 5.36319 17.9077C5.98838 18.0468 6.25523 18.6687 5.92533 19.2545C5.26553 20.4245 4.5942 21.5883 3.92594 22.7545C3.7137 23.1296 3.50453 23.5094 3.25537 23.9422Z" fill="#D5569A"/>
<path fill-rule="evenodd" clip-rule="evenodd" d="M4.65015 18.6326C4.65014 18.6327 4.65017 18.6326 4.65015 18.6326L1.35297 24.3976C1.16525 24.7268 1.18601 24.9641 1.26524 25.1001C1.34451 25.2361 1.54159 25.3731 1.92743 25.3731C9.33374 25.3762 16.7404 25.3762 24.1473 25.3731C24.4603 25.3728 24.6457 25.2452 24.7292 25.1028C24.8123 24.9608 24.8329 24.7381 24.6788 24.4657C23.5649 22.5089 22.448 20.5538 21.328 18.6005C21.2059 18.3857 21.0665 18.2731 20.943 18.228C20.8257 18.1852 20.6875 18.1894 20.5271 18.2754C20.372 18.3585 20.2866 18.478 20.2558 18.6111C20.2242 18.748 20.244 18.9296 20.3599 19.1363C20.6563 19.6674 20.9598 20.1944 21.2642 20.7229C21.4193 20.9922 21.5748 21.262 21.7297 21.5332C22.1491 22.2692 22.5679 23.0063 23.0054 23.7761L23.2773 24.2547H2.715L2.98466 23.7863C3.1445 23.5086 3.28669 23.2549 3.4249 23.0082C3.50173 22.8711 3.57734 22.7362 3.65407 22.6006L3.65492 22.5991C3.80619 22.3351 3.95755 22.0714 4.10884 21.8078C4.62644 20.9059 5.14322 20.0054 5.65324 19.101C5.77626 18.8824 5.77644 18.6819 5.71452 18.5349C5.65312 18.389 5.51682 18.262 5.29542 18.2127C5.18229 18.1875 5.08145 18.2036 4.983 18.2606C4.87835 18.3211 4.76218 18.4371 4.65015 18.6326ZM5.43119 17.6026C5.16444 17.5433 4.90347 17.5845 4.6699 17.7197C4.44255 17.8513 4.25648 18.0625 4.10783 18.322L0.810273 24.0876C0.552155 24.54 0.498012 25.0247 0.725202 25.4147C0.952377 25.8046 1.40125 25.9981 1.92743 25.9981C9.33397 26.0012 16.7406 26.0012 24.1477 25.9981C24.6375 25.9977 25.052 25.7882 25.2685 25.4187C25.4852 25.0487 25.4646 24.5848 25.2223 24.1571C24.1082 22.1998 22.9908 20.2438 21.8705 18.2901C21.6958 17.9831 21.4545 17.7494 21.1573 17.6409C20.8538 17.5302 20.5305 17.5644 20.2319 17.7245C19.9279 17.8874 19.7207 18.1511 19.6469 18.4703C19.574 18.7856 19.6375 19.1255 19.8144 19.4414C20.1128 19.976 20.4199 20.5092 20.7257 21.0401C20.8802 21.3083 21.0343 21.576 21.1869 21.843C21.5228 22.4324 21.8582 23.0224 22.2033 23.6297H3.79278C3.85441 23.5203 3.91423 23.4135 3.97295 23.3087C4.04919 23.1727 4.12358 23.04 4.19764 22.9091C4.34832 22.6461 4.49923 22.3832 4.65019 22.1201C5.168 21.2179 5.68635 20.3146 6.19764 19.408C6.40443 19.0408 6.43586 18.6374 6.29054 18.2923C6.14471 17.946 5.83497 17.6925 5.43119 17.6026Z" fill="#D5569A"/>
<path d="M16.4582 8.9969C16.4489 10.8903 14.8679 12.427 12.9431 12.4124C11.046 12.3985 9.5226 10.8226 9.53721 8.88928C9.55182 7.00974 11.1198 5.48535 13.0315 5.49381C14.9432 5.50227 16.4674 7.06893 16.4582 8.9969ZM12.99 7.22883C12.7625 7.22881 12.5373 7.27392 12.3273 7.36155C12.1174 7.44918 11.927 7.57758 11.767 7.73932C11.6071 7.90105 11.4809 8.09291 11.3956 8.30376C11.3104 8.51462 11.2679 8.74028 11.2705 8.96769C11.2805 9.92629 12.0472 10.675 13.0238 10.6789C13.9466 10.6835 14.7341 9.88093 14.7218 8.95692C14.7219 8.7297 14.6771 8.50469 14.5901 8.29478C14.5031 8.08487 14.3755 7.89419 14.2146 7.73366C14.0537 7.57313 13.8627 7.44591 13.6526 7.35928C13.4425 7.27265 13.2173 7.22832 12.99 7.22883Z" fill="#D5569A" stroke="#D5569A" stroke-width="0.5"/>
</svg>
