<svg width="182" height="37" viewBox="0 0 182 37" fill="none" xmlns="http://www.w3.org/2000/svg">
<path d="M37.9868 14.6015L37.9618 14.5015L31.9788 17.5378L30.3486 18.3659L26.5962 20.2741L24.8159 21.1742L19.3416 23.9745C19.254 24.0179 19.1522 24.0265 19.0581 23.9985C18.9619 23.9676 18.8825 23.9014 18.8371 23.8145L18.3451 22.8424L18.1158 22.4023C18.0845 22.3385 18.0336 22.2854 17.9699 22.2503C17.9055 22.2144 17.8315 22.1977 17.7572 22.2023C17.683 22.2054 17.6116 22.2306 17.5529 22.2743C17.4931 22.3165 17.448 22.3751 17.4237 22.4423L17.0401 23.5105L16.2312 25.7667L15.4724 27.8989V27.9429L16.2688 28.1469L21.6889 29.5551L21.7348 29.5271L20.7466 27.6029V27.5709C20.7478 27.5629 20.7478 27.5548 20.7466 27.5469V27.4909L21.0343 27.3509C21.0363 27.343 21.0363 27.3347 21.0343 27.3269C21.0369 27.3347 21.0369 27.343 21.0343 27.3509L34.2386 20.7742C34.1677 21.2142 34.076 21.6503 33.9634 22.0783C33.3056 24.5962 31.9633 26.9016 30.0734 28.759L29.6023 29.203L29.2271 29.5231C29.0436 29.6831 28.8518 29.8351 28.6559 29.9831C28.4599 30.1311 28.2389 30.2792 28.0555 30.4192L27.9513 30.4912L27.847 30.5592L27.6385 30.6952C27.0009 31.1044 26.3319 31.4669 25.6373 31.7793C25.3871 31.8953 25.1119 32.0073 24.8409 32.1074C24.6742 32.1754 24.5032 32.2354 24.3323 32.2954L23.8278 32.4634L23.6527 32.5114L23.4776 32.5634C20.2445 33.4603 16.7926 33.3027 13.6629 32.1154H13.6171C13.2251 31.9673 12.8416 31.7993 12.4663 31.6273C12.3079 31.5513 12.1495 31.4713 11.9869 31.3833C11.8242 31.2953 11.6783 31.2153 11.5199 31.1432C11.3615 31.0712 11.2155 30.9592 11.0654 30.8672L10.8403 30.7112C10.465 30.4672 10.1065 30.2232 9.76042 29.9511C9.61867 29.8471 9.48108 29.7351 9.34349 29.6231L8.92656 29.2831L8.64304 29.023C8.55132 28.939 8.45959 28.847 8.36786 28.759C8.03849 28.435 7.72579 28.0989 7.42976 27.7429C7.2338 27.5029 7.04618 27.2748 6.8669 27.0348C6.39441 26.4086 5.97608 25.7463 5.6161 25.0546L5.59109 25.0106L5.56607 24.9666C5.40347 24.6426 5.24503 24.3105 5.10744 23.9745C4.69146 22.9817 4.39356 21.9471 4.21937 20.8902C4.07334 20.0975 3.99387 19.2948 3.98172 18.4899C3.9818 17.2759 4.13865 16.0666 4.44869 14.8896C4.50706 14.6615 4.57377 14.4375 4.64465 14.2175C4.85454 13.5616 5.11371 12.9212 5.42014 12.3013C5.44099 12.2533 5.46601 12.2013 5.49102 12.1533C6.30132 10.5358 7.41503 9.07535 8.77646 7.84482C9.07248 7.5728 9.38101 7.31677 9.69788 7.07274L9.89801 6.92073C10.0356 6.81672 10.1732 6.72071 10.3149 6.6207L10.5276 6.48068C10.7194 6.34867 10.9195 6.22066 11.1196 6.10064C11.3198 5.98063 11.5366 5.85662 11.7284 5.74861C11.9201 5.64059 12.1453 5.52858 12.3538 5.42857C12.5622 5.32856 12.7707 5.22455 13.0083 5.12854L13.246 5.02853L13.7588 4.83651L14.2633 4.66049C15.8523 4.13169 17.5221 3.86127 19.204 3.86041H19.5208C19.7324 3.85642 19.944 3.86444 20.1546 3.88441C20.3172 3.88441 20.4798 3.90841 20.6424 3.92042C20.8967 3.94442 21.1511 3.97642 21.397 4.00843C21.7431 4.05643 22.085 4.11644 22.4269 4.18844C22.6645 4.23645 22.898 4.29245 23.1315 4.34846C23.4525 4.43247 23.7652 4.52448 24.0779 4.62449C24.2906 4.6965 24.4949 4.7685 24.7075 4.84851L25.3287 5.09254L25.6331 5.22455L25.8582 5.33256C26.0042 5.40057 26.1543 5.47258 26.3002 5.54859L26.5212 5.6606L23.0148 7.41278L16.3438 10.7491L12.6748 12.5613L12.5414 12.3173L11.7284 10.8011C11.6941 10.7391 11.642 10.6877 11.5783 10.6531C11.5153 10.6176 11.4427 10.6008 11.3698 10.6051C11.296 10.6101 11.2251 10.6351 11.1655 10.6771C11.1079 10.7188 11.0644 10.7759 11.0404 10.8411L9.85632 13.9655L9.63951 14.5295L9.22258 15.6256C9.2018 15.6737 9.19322 15.7258 9.19756 15.7777C9.20008 15.8288 9.21281 15.8791 9.23509 15.9257C9.26106 15.9709 9.2949 16.0114 9.33515 16.0457C9.37637 16.0784 9.42486 16.1017 9.47691 16.1137L10.0815 16.2617L15.1681 17.4938L15.2931 17.4298L14.5343 16.0217C14.4888 15.9363 14.4798 15.8373 14.5093 15.7456C14.5237 15.7004 14.5473 15.6583 14.5788 15.6219C14.6103 15.5855 14.649 15.5555 14.6928 15.5336L18.762 13.4574L21.1511 12.2573L29.6982 7.91283L32.9836 6.25266C33.0341 6.22563 33.0781 6.18885 33.1129 6.14465C33.1465 6.09969 33.1679 6.04747 33.1754 5.99263C33.188 5.93863 33.188 5.88262 33.1754 5.82861C33.1587 5.77575 33.1286 5.72765 33.0879 5.6886C31.0733 3.66724 28.6051 2.11305 25.8707 1.14413L25.4538 1.00411C23.4449 0.337552 21.3338 -0.00183391 19.2081 7.45272e-06C18.5786 7.45272e-06 17.9573 0.0280104 17.3528 0.0840162C16.5649 0.15646 15.7823 0.275364 15.0096 0.440053C14.4426 0.564066 13.8797 0.708081 13.3419 0.880099C13.05 0.968108 12.7582 1.06412 12.4747 1.16413C12.0911 1.30014 11.7158 1.45216 11.3531 1.60017C7.56663 3.24506 4.43346 6.01701 2.41822 9.505C2.23477 9.82103 2.06383 10.1411 1.89705 10.4771C1.3383 11.5859 0.899611 12.7467 0.587879 13.9415C0.196615 15.4312 -0.000846618 16.9616 2.72829e-06 18.4979V18.858C0.0237272 20.1689 0.192844 21.4738 0.504493 22.7504C0.592049 23.0984 0.683774 23.4424 0.792177 23.7865C0.784747 23.8045 0.784747 23.8245 0.792177 23.8425C0.995219 24.4949 1.23602 25.136 1.51347 25.7627C1.99026 26.8378 2.57095 27.8678 3.24792 28.839C3.43971 29.103 3.6315 29.3671 3.83579 29.6391C4.22354 30.1231 4.64048 30.6112 5.0866 31.0712L5.17415 31.1673C6.091 32.1107 7.1083 32.9594 8.20943 33.6995C8.45959 33.8715 8.7306 34.0396 9.00161 34.1996C12.0539 36.0421 15.5895 37.0133 19.1956 36.9999C19.7335 36.9999 20.2672 36.9999 20.7925 36.9359C23.846 36.6954 26.7938 35.7512 29.3855 34.1836C29.7676 33.9594 30.1365 33.715 30.4904 33.4515C34.1331 30.8968 36.7304 27.2005 37.8326 23.0024C38.0213 22.2744 38.1605 21.5355 38.2495 20.7902C38.3454 20.0858 38.3956 19.3763 38.3996 18.666V18.4979C38.4062 17.1888 38.2678 15.8826 37.9868 14.6015Z" fill="#645F71"/>
<path d="M39.9589 7.60081C40.0112 7.61423 40.0597 7.63885 40.1007 7.67282C40.1429 7.70362 40.1771 7.74331 40.2008 7.78883C40.2245 7.83512 40.2386 7.88539 40.2424 7.93684C40.2431 7.98885 40.2332 8.04049 40.2133 8.08886L38.433 12.5573C38.4073 12.6218 38.3624 12.6775 38.3037 12.7173C38.2464 12.7573 38.1784 12.7809 38.1077 12.7853C38.0358 12.7889 37.9642 12.7728 37.9014 12.7388C37.8387 12.7048 37.7873 12.6543 37.7533 12.5933L37.3364 11.8412C37.2903 11.7572 37.2113 11.694 37.1168 11.6655C37.0223 11.637 36.9199 11.6456 36.8319 11.6892L36.6318 11.7932L36.1273 12.0373L33.0503 13.6014L32.4208 13.9215L21.9224 19.258C21.8449 19.2951 21.7564 19.305 21.6722 19.286L21.4179 19.226C21.3629 19.2151 21.3115 19.1918 21.2678 19.158C21.2244 19.1257 21.1888 19.0848 21.1635 19.038L19.9669 16.6938C19.943 16.6518 19.9288 16.6054 19.9253 16.5577C19.9167 16.5114 19.9167 16.464 19.9253 16.4177C19.9422 16.3732 19.9661 16.3314 19.9961 16.2937C20.0292 16.2579 20.0688 16.2281 20.1129 16.2057L30.7697 10.8011L31.4201 10.4691L34.4804 8.91695L34.9849 8.66092L35.1767 8.56091C35.2204 8.53964 35.2587 8.50963 35.2893 8.4729C35.3217 8.43678 35.3458 8.39453 35.3601 8.34889C35.3706 8.30276 35.3706 8.255 35.3601 8.20887C35.3566 8.16246 35.3423 8.11738 35.3185 8.07686L34.6931 6.90874C34.6638 6.84744 34.6523 6.77974 34.6597 6.71272C34.67 6.64688 34.6987 6.58496 34.7427 6.53353C34.7868 6.4821 34.8445 6.4431 34.9099 6.42068C34.9764 6.40071 35.0477 6.40071 35.1142 6.42068L38.0327 7.13276L39.9589 7.60081Z" fill="#645F71"/>
<path d="M68.1228 27.5789H64.9041L64.6456 25.3466C64.054 26.1621 63.2525 26.8167 62.3191 27.2468C61.1715 27.7748 59.9098 28.0339 58.6375 28.0029C57.3006 28.027 55.9724 27.7913 54.7328 27.31C53.4932 26.8288 52.3679 26.112 51.4246 25.2026C49.4483 23.3358 48.4616 20.8728 48.4644 17.8138C48.4671 14.7549 49.4817 12.2906 51.508 10.4211C52.4858 9.5095 53.6421 8.79273 54.9102 8.31211C56.1782 7.83149 57.5329 7.59653 58.896 7.62078C61.3976 7.62078 63.4295 8.19951 64.9916 9.35696C66.5092 10.4197 67.6361 11.917 68.2103 13.6334L64.4162 14.9295C64.0591 13.8059 63.3232 12.8278 62.3242 12.1486C61.3251 11.4695 60.1193 11.1278 58.896 11.1772C57.217 11.1612 55.5981 11.7756 54.3848 12.8893C53.1201 14.0281 52.4878 15.6736 52.4878 17.8258C52.4878 19.9781 53.1007 21.6236 54.3265 22.7624C54.9275 23.3378 55.6437 23.7907 56.4318 24.0939C57.2199 24.397 58.0638 24.5442 58.9127 24.5265C60.5999 24.5265 61.8938 24.1265 62.7944 23.3264C63.6045 22.6531 64.1601 21.7418 64.3746 20.7342H57.9538V17.4018H68.127L68.1228 27.5789Z" fill="#645F71"/>
<path d="M81.323 22.8024L84.5167 23.7105C84.1385 24.9538 83.3389 26.0406 82.2444 26.7988C81.0323 27.6324 79.5652 28.0546 78.0751 27.9989C77.1205 28.0183 76.1715 27.8553 75.2832 27.5194C74.3949 27.1836 73.5851 26.6816 72.9009 26.0427C71.4833 24.7092 70.7746 22.9437 70.7746 20.7462C70.7392 19.8001 70.9058 18.8571 71.2643 17.9751C71.6228 17.0931 72.1656 16.2909 72.8592 15.6176C73.4861 14.9791 74.2438 14.4719 75.0847 14.1277C75.9255 13.7834 76.8315 13.6097 77.7457 13.6174C79.9263 13.6174 81.6357 14.2415 82.8615 15.4936C84.0873 16.7457 84.7293 18.4619 84.7293 20.6501C84.7293 20.7982 84.7293 20.9622 84.7001 21.1462V21.5862L84.671 21.7783H74.5395C74.5506 22.1991 74.6536 22.6131 74.8417 22.9935C75.0299 23.3738 75.299 23.7121 75.6318 23.9865C76.3098 24.5706 77.1932 24.8865 78.1043 24.8706C79.7359 24.8572 80.8088 24.1678 81.323 22.8024ZM74.6312 19.25H80.9561C80.9334 18.5326 80.6244 17.851 80.093 17.3458C79.7849 17.0729 79.4216 16.8635 79.0258 16.7307C78.6299 16.5979 78.2098 16.5445 77.7916 16.5737C77.3792 16.5578 76.9678 16.6231 76.5828 16.7655C76.1977 16.9079 75.8471 17.1244 75.5526 17.4018C75.0132 17.8841 74.684 18.5444 74.6312 19.25Z" fill="#645F71"/>
<path d="M92.4384 9.95705V14.0015H95.2861V17.2578H92.4384V22.9384C92.4192 23.1551 92.4463 23.3733 92.518 23.5797C92.5897 23.786 92.7045 23.9762 92.8553 24.1385C93.2107 24.4044 93.6569 24.5329 94.1061 24.4986C94.5029 24.512 94.8997 24.4743 95.2861 24.3866V27.4429C94.5961 27.6839 93.8643 27.7953 93.1305 27.7709C91.9301 27.8304 90.7533 27.4354 89.8534 26.6708C89.4409 26.263 89.1206 25.7778 88.9125 25.2457C88.7045 24.7136 88.6132 24.146 88.6443 23.5785V17.2658H86.0885V14.0015H86.8056C87.1016 14.0223 87.3988 13.9812 87.6767 13.881C87.9546 13.7809 88.2064 13.6241 88.415 13.4214C88.8099 12.9876 89.016 12.4247 88.9904 11.8492V9.95705H92.4384Z" fill="#645F71"/>
<path d="M111.501 27.5789H98.7341V8.02484H111.501V11.6092H102.703V16.0777H110.667V19.47H102.703V23.9945H111.501V27.5789Z" fill="#645F71"/>
<path d="M118.634 18.0019C117.945 18.7797 117.596 19.783 117.659 20.8022C117.606 21.82 117.954 22.8196 118.634 23.6025C118.952 23.9424 119.343 24.2122 119.78 24.3931C120.217 24.5741 120.689 24.6619 121.165 24.6506C121.637 24.663 122.105 24.5755 122.538 24.3943C122.97 24.2132 123.356 23.9428 123.667 23.6025C124.363 22.8267 124.722 21.8246 124.672 20.8022C124.733 19.7783 124.372 18.7722 123.667 18.0019C123.351 17.669 122.964 17.4055 122.532 17.2294C122.1 17.0533 121.634 16.9689 121.165 16.9818C120.692 16.9698 120.222 17.0546 119.785 17.2304C119.349 17.4063 118.957 17.6693 118.634 18.0019ZM128.378 32.8034H124.626V26.2267C123.897 27.3522 122.585 27.9136 120.69 27.9109C119.764 27.9363 118.844 27.7709 117.991 27.4258C117.138 27.0807 116.372 26.5641 115.745 25.9107C114.434 24.4997 113.744 22.6552 113.823 20.7662C113.757 18.9183 114.425 17.1154 115.691 15.7216C116.303 15.0548 117.061 14.5261 117.911 14.1734C118.76 13.8207 119.681 13.6527 120.606 13.6814C121.548 13.641 122.482 13.85 123.308 14.2855C123.906 14.5816 124.4 15.0391 124.73 15.6016V14.0015H128.378V32.8034Z" fill="#645F71"/>
<path d="M141.612 27.5789C141.527 27.0965 141.489 26.6077 141.499 26.1187C141.12 26.7337 140.546 27.2161 139.86 27.4949C139.143 27.7924 138.369 27.9436 137.588 27.9389C135.92 27.9389 134.608 27.4335 133.652 26.4228C132.683 25.3654 132.169 23.994 132.214 22.5864V14.0015H136.037V21.8423C136.002 22.563 136.235 23.2722 136.696 23.8425C136.937 24.0985 137.236 24.2989 137.57 24.4284C137.903 24.558 138.263 24.6134 138.622 24.5906C138.982 24.6086 139.343 24.5538 139.68 24.4298C140.016 24.3057 140.322 24.1152 140.578 23.8705C141.072 23.3326 141.33 22.631 141.295 21.9143V14.0015H145.118V25.1226C145.116 25.9434 145.165 26.7636 145.264 27.5789H141.612Z" fill="#645F71"/>
<path d="M148.741 9.56899C148.736 9.2714 148.795 8.976 148.913 8.70086C149.031 8.42573 149.207 8.17664 149.429 7.96882C149.642 7.74876 149.9 7.57384 150.187 7.45533C150.474 7.33682 150.784 7.27735 151.097 7.28075C151.407 7.27598 151.716 7.33246 152.003 7.44669C152.289 7.56092 152.549 7.73046 152.765 7.94482C152.989 8.15599 153.166 8.40909 153.284 8.68846C153.402 8.96782 153.46 9.26751 153.452 9.56899C153.456 9.86222 153.396 10.153 153.278 10.4234C153.16 10.6937 152.985 10.938 152.765 11.1412C152.546 11.3516 152.286 11.5186 152 11.6325C151.713 11.7465 151.407 11.8051 151.097 11.8051C150.787 11.8051 150.48 11.7465 150.194 11.6325C149.908 11.5186 149.648 11.3516 149.429 11.1412C149.209 10.938 149.034 10.6937 148.916 10.4234C148.797 10.153 148.738 9.86222 148.741 9.56899ZM153.023 27.5709H149.2V14.0015H153.015L153.023 27.5709Z" fill="#645F71"/>
<path d="M161.829 9.95705V14.0015H164.689V17.2578H161.845V22.9384C161.826 23.1551 161.853 23.3733 161.925 23.5797C161.997 23.786 162.111 23.9762 162.262 24.1385C162.618 24.4044 163.064 24.5329 163.513 24.4986C163.908 24.5172 164.303 24.4849 164.689 24.4026V27.4429C163.999 27.6842 163.267 27.7956 162.533 27.7709C161.333 27.8304 160.156 27.4354 159.256 26.6708C158.839 26.2649 158.514 25.7807 158.301 25.2486C158.088 24.7165 157.991 24.1479 158.018 23.5785V17.2658H155.475V14.0015H156.196C156.492 14.0223 156.789 13.9812 157.067 13.881C157.345 13.7809 157.597 13.6241 157.805 13.4214C158.2 12.9876 158.406 12.4247 158.381 11.8492V9.95705H161.829Z" fill="#645F71"/>
<path d="M173.115 32.9274H169.063L172.398 25.8707L166.39 14.0095H170.672L174.437 21.9543L177.918 14.0095H182L173.115 32.9274Z" fill="#645F71"/>
</svg>
