<svg width="177" height="29" viewBox="0 0 177 29" fill="none" xmlns="http://www.w3.org/2000/svg">
<path d="M18.3459 11.3666C19.7412 12.8032 20.439 14.97 20.4395 17.8671V29H13.9722V18.9797C13.9722 16.3225 12.9624 14.9939 10.9428 14.9939C9.83171 14.9939 8.94112 15.3772 8.27104 16.1437C7.60097 16.9103 7.26636 18.0601 7.26721 19.5932V29H0.799988V2.35135H7.26721V11.3307C7.98274 10.628 8.82881 10.0898 9.75179 9.75007C10.7357 9.38462 11.7721 9.20155 12.8152 9.20898C15.1071 9.21078 16.9506 9.92998 18.3459 11.3666Z" fill="#908B9E"/>
<path d="M25.3628 6.04126C24.5985 5.3665 24.2163 4.52842 24.2163 3.52703C24.2163 2.52563 24.5985 1.68755 25.3628 1.0128C26.127 0.337598 27.1296 0 28.3705 0C29.6113 0 30.6141 0.320061 31.3789 0.960183C32.1432 1.60074 32.5253 2.4215 32.5253 3.42246C32.5253 4.47033 32.1432 5.33734 31.3789 6.0235C30.6146 6.70966 29.6118 7.05318 28.3705 7.05405C27.1292 7.05405 26.1266 6.71646 25.3628 6.04126Z" fill="#BEB9CC"/>
<path d="M28.3705 9.4054C29.272 9.4054 30.1365 9.76721 30.774 10.4112C31.4116 11.0553 31.7698 11.9288 31.77 12.8397V29H24.9717V12.8397C24.9717 11.9289 25.3298 11.0553 25.9672 10.4113C26.6046 9.76723 27.4691 9.4054 28.3705 9.4054Z" fill="#908B9E"/>
<path d="M44.0877 10.0631C45.1195 9.62508 46.3011 9.40585 47.6326 9.4054V15.4866C47.1578 15.4224 46.68 15.3867 46.2015 15.3795C44.8475 15.3795 43.7879 15.7706 43.0227 16.5529C42.2575 17.3351 41.8736 18.5326 41.8711 20.1454V29H35.5468V9.72554H41.5715V12.0368C42.2146 11.1603 43.0534 10.5024 44.0877 10.0631Z" fill="#908B9E"/>
<path d="M69.4356 20.8821H55.7696C56.0474 21.8622 56.585 22.6145 57.3824 23.1391C58.1797 23.6636 59.1798 23.9261 60.3826 23.9266C61.2841 23.9266 62.0644 23.7983 62.7238 23.5417C63.3831 23.2852 64.0478 22.8652 64.718 22.2818L68.1866 25.9206C66.3576 27.974 63.6868 29.0004 60.1742 29C57.9777 29 56.047 28.58 54.3821 27.74C52.7173 26.9001 51.4283 25.7339 50.5151 24.2415C49.6006 22.7479 49.1433 21.0565 49.1433 19.1674C49.1433 17.3017 49.5884 15.6281 50.4785 14.1467C51.3686 12.6653 52.5999 11.5047 54.1725 10.6647C55.7445 9.82517 57.5135 9.4054 59.4792 9.4054C61.3518 9.4054 63.0515 9.79618 64.5782 10.5777C66.0816 11.3385 67.339 12.5157 68.203 13.9714C69.0927 15.4528 69.5377 17.2081 69.5382 19.2373C69.539 19.2847 69.5048 19.833 69.4356 20.8821ZM56.9656 15.0034C56.2837 15.5872 55.8495 16.3804 55.6631 17.3829H63.3652C63.1806 16.3804 62.7471 15.5872 62.0647 15.0034C61.3823 14.4195 60.5331 14.1276 59.5171 14.1276C58.4981 14.1276 57.6476 14.4195 56.9656 15.0034Z" fill="#908B9E"/>
<path d="M79.5478 9.93276H84.0693V15.1197H79.7228V29H73.0623V15.1197H70.2936V9.93276H73.0623V9.42094C73.0623 7.01045 73.7577 5.09893 75.1485 3.68639C76.5392 2.27385 78.4847 1.56758 80.985 1.56758C81.8089 1.5662 82.6309 1.65195 83.4382 1.82349C84.2304 1.9941 84.8846 2.24978 85.4009 2.59053L83.7505 7.48512C83.096 7.09575 82.4301 6.90084 81.7528 6.90038C81.0517 6.90038 80.5084 7.1196 80.1228 7.55804C79.7373 7.99648 79.5445 8.64175 79.5445 9.49386L79.5478 9.93276Z" fill="#908B9E"/>
<path d="M89.7966 27.74C88.1835 26.9005 86.922 25.7343 86.0122 24.2415C85.1024 22.7487 84.6468 21.0574 84.6455 19.1674C84.6455 17.3017 85.1011 15.6222 86.0122 14.1289C86.9233 12.6357 88.1789 11.4752 89.779 10.6476C91.3799 9.8199 93.1941 9.40584 95.2216 9.4054C97.249 9.40496 99.0689 9.81902 100.681 10.6476C102.292 11.4739 103.548 12.6287 104.448 14.1118C105.348 15.5949 105.797 17.2801 105.796 19.1674C105.796 21.0565 105.346 22.7479 104.448 24.2415C103.549 25.7352 102.294 26.9014 100.681 27.74C99.0684 28.5805 97.2486 29.0004 95.2216 29C93.2171 29 91.4088 28.58 89.7966 27.74ZM98.0552 22.5091C98.7927 21.7047 99.1615 20.5908 99.1615 19.1674C99.1615 17.7678 98.7927 16.6715 98.0552 15.8785C97.3176 15.0855 96.3731 14.6902 95.2216 14.6924C94.0688 14.6924 93.1243 15.0877 92.388 15.8785C91.6518 16.6693 91.283 17.7656 91.2817 19.1674C91.2817 20.5908 91.6505 21.7047 92.388 22.5091C93.1256 23.3135 94.0708 23.7159 95.2235 23.7163C96.3741 23.7163 97.318 23.3139 98.0552 22.5091Z" fill="#908B9E"/>
<path d="M110.932 28.4588C109.429 28.0972 108.221 27.6246 107.306 27.041L109.256 22.4929C110.099 23.0294 111.103 23.4552 112.266 23.7703C113.392 24.0802 114.553 24.239 115.72 24.2429C116.768 24.2429 117.514 24.1319 117.96 23.91C118.406 23.6881 118.628 23.3673 118.627 22.9477C118.627 22.5276 118.359 22.2301 117.823 22.0552C117.287 21.8803 116.438 21.7111 115.275 21.5476C113.793 21.3613 112.533 21.1163 111.496 20.8127C110.468 20.5158 109.539 19.9353 108.812 19.1345C108.059 18.318 107.683 17.1755 107.683 15.7069C107.669 14.536 108.043 13.3948 108.743 12.4691C109.449 11.5239 110.48 10.7769 111.835 10.228C113.19 9.67917 114.815 9.40496 116.709 9.4054C118.053 9.40521 119.393 9.54591 120.71 9.82528C122.031 10.1056 123.137 10.5011 124.027 11.0118L122.078 15.5269C120.448 14.5967 118.612 14.1138 116.746 14.1249C115.72 14.1249 114.967 14.2475 114.488 14.4927C114.01 14.7379 113.77 15.0587 113.77 15.4551C113.77 15.8989 114.032 16.2081 114.557 16.3825C115.081 16.557 115.947 16.7378 117.156 16.925C118.684 17.1583 119.949 17.4266 120.952 17.7298C121.955 18.0331 122.858 18.6074 123.569 19.3922C124.309 20.1968 124.68 21.3226 124.68 22.7697C124.69 23.9292 124.316 25.058 123.619 25.9725C122.913 26.9177 121.87 27.6586 120.491 28.1952C119.111 28.7317 117.452 29 115.514 29C113.972 29.0011 112.434 28.8195 110.932 28.4588Z" fill="#908B9E"/>
<path d="M140.542 27.879C139.981 28.2422 139.298 28.5193 138.492 28.7104C137.647 28.9076 136.783 29.0047 135.917 28.9998C133.44 28.9998 131.535 28.3731 130.203 27.1198C128.87 25.8664 128.204 23.9981 128.204 21.515V14.9351H125.435V9.80086H128.204V4.7027H134.865V9.80086H139.209V14.9351H134.862V21.4428C134.862 22.1424 135.043 22.6907 135.405 23.0879C135.767 23.4852 136.252 23.6842 136.858 23.6851C137.629 23.6851 138.306 23.4808 138.891 23.0723L140.542 27.879Z" fill="#908B9E"/>
<path d="M161.591 20.8821H147.925C148.203 21.8622 148.741 22.6145 149.538 23.1391C150.336 23.6636 151.336 23.9261 152.539 23.9266C153.441 23.9266 154.222 23.7983 154.88 23.5417C155.539 23.2852 156.204 22.8652 156.875 22.2818L160.344 25.9206C158.515 27.974 155.844 29.0004 152.33 29C150.133 29 148.202 28.58 146.537 27.74C144.873 26.9001 143.584 25.7339 142.67 24.2415C141.755 22.7479 141.298 21.0565 141.298 19.1674C141.298 17.3017 141.743 15.6281 142.633 14.1467C143.524 12.6653 144.755 11.5047 146.328 10.6647C147.9 9.82517 149.669 9.4054 151.636 9.4054C153.509 9.4054 155.207 9.79618 156.732 10.5777C158.236 11.3383 159.493 12.5155 160.357 13.9714C161.247 15.4528 161.692 17.2081 161.693 19.2373C161.696 19.2847 161.662 19.833 161.591 20.8821ZM149.119 15.0034C148.436 15.5872 148.003 16.3804 147.819 17.3829H155.519C155.335 16.3804 154.901 15.5872 154.219 15.0034C153.536 14.4195 152.687 14.1281 151.671 14.1289C150.653 14.1281 149.804 14.4195 149.122 15.0034H149.119Z" fill="#908B9E"/>
<path d="M173.254 10.0631C174.286 9.62508 175.468 9.40585 176.8 9.4054V15.4866C176.325 15.4224 175.847 15.3867 175.368 15.3795C174.014 15.3795 172.954 15.7706 172.189 16.5529C171.423 17.3351 171.041 18.5326 171.04 20.1454V29H164.714V9.72554H170.74V12.0368C171.384 11.1603 172.222 10.5024 173.254 10.0631Z" fill="#908B9E"/>
</svg>
