<svg width="159" height="43" viewBox="0 0 159 43" fill="none" xmlns="http://www.w3.org/2000/svg">
<g clip-path="url(#clip0_523_3824)">
<path d="M54.1437 18.1149C54.187 19.3246 53.9001 20.5228 53.315 21.5761C52.7298 22.6295 51.8694 23.4967 50.8294 24.0811C49.7253 24.7463 48.4662 25.0971 47.1837 25.0971C45.9011 25.0971 44.6421 24.7463 43.5379 24.0811C42.0133 23.3041 40.9594 21.9527 39.859 20.6013C37.8108 18.1351 35.6764 15.7433 33.5884 13.3108C33.1708 12.8243 32.8659 12.8311 32.3488 13.2365C29.5317 15.4257 27.5497 18.2973 25.7202 21.304C24.0697 24.0067 22.4655 26.7095 20.7089 29.3514C19.3222 31.5569 17.2055 33.1823 14.7432 33.9324C8.59842 35.7432 1.28706 31.6351 0.319278 24.3851C-0.111582 21.1621 0.836316 18.3041 2.51999 15.6757C6.56775 9.05664 12.7909 4.11883 20.0792 1.74326C23.9854 0.473851 28.131 0.165879 32.1765 0.844596C35.1749 1.24377 38.1055 2.0599 40.8865 3.27025C43.7067 4.62531 46.3335 6.36416 48.695 8.43919C50.289 9.77046 51.6477 11.3702 52.712 13.1689C53.6372 14.647 54.1335 16.3616 54.1437 18.1149Z" fill="#908B9E"/>
<path d="M40.6412 34.6892C40.6412 35.7905 40.6412 36.8919 40.6412 38C40.6631 38.1073 40.659 38.2184 40.6293 38.3237C40.5996 38.4291 40.5452 38.5254 40.4708 38.6046C40.3965 38.6837 40.3043 38.7432 40.2024 38.778C40.1004 38.8127 39.9917 38.8217 39.8856 38.8041C39.5409 38.8041 39.2227 38.8041 38.8515 38.8041C38.6726 38.8265 38.4911 38.8116 38.3181 38.7601C38.1451 38.7086 37.9842 38.6218 37.8452 38.5048C37.7062 38.3878 37.5921 38.2431 37.5098 38.0797C37.4276 37.9162 37.3789 37.7374 37.3667 37.5541C37.3056 37.1834 37.2746 36.8083 37.2739 36.4324C37.2739 35.0068 37.2739 33.5811 37.2739 32.1554C37.2942 32.0128 37.2821 31.8673 37.2384 31.7302C37.1947 31.5931 37.1206 31.4681 37.0219 31.3649C36.9232 31.2617 36.8025 31.183 36.6692 31.135C36.5359 31.0869 36.3935 31.0708 36.2531 31.0879C35.5902 31.0879 35.3582 31.4865 35.3649 32.1487C35.3649 33.9798 35.3649 35.8108 35.3649 37.6352C35.3649 38.6554 35.2323 38.777 34.2048 38.8041H33.648C32.4549 38.8041 32.0041 38.3514 31.9909 37.1554C31.9909 35.6757 31.9909 34.1892 31.9909 32.7095C32.0078 32.4421 31.9878 32.1737 31.9312 31.9122C31.8753 31.6434 31.7185 31.4075 31.4944 31.2548C31.2703 31.102 30.9965 31.0446 30.7314 31.0946C30.1349 31.1554 29.9691 31.5406 29.9758 32.1081C29.9758 33.9662 29.9758 35.8243 29.9758 37.6825C29.9758 38.6892 29.883 38.7838 28.8821 38.8041H28.1662C27.205 38.7703 26.8404 38.4527 26.6615 37.4932C26.626 37.2813 26.6104 37.0663 26.6151 36.8513C26.6151 34.9662 26.6151 33.0878 26.6151 31.2027C26.5857 30.7828 26.6758 30.3631 26.8745 29.994C27.0731 29.6249 27.372 29.322 27.7353 29.1216C29.5582 28.054 31.4274 27.7162 33.416 28.7095C33.7606 28.8508 34.1453 28.8508 34.4899 28.7095C35.6593 28.1012 37.0168 27.9871 38.2682 28.3919C38.9545 28.57 39.5617 28.9792 39.9913 29.5532C40.4208 30.1272 40.6475 30.8323 40.6346 31.5541C40.6876 32.5879 40.6412 33.6351 40.6412 34.6892Z" fill="#908B9E"/>
<path d="M106.894 38.0405C106.192 38.0878 105.569 38.1757 104.906 38.1689C104.063 38.1987 103.236 37.94 102.554 37.4342C101.873 36.9284 101.378 36.2047 101.147 35.3784C100.445 33.2365 100.716 30.0946 102.911 28.8919C103.833 28.3436 104.886 28.0665 105.953 28.0916C107.02 28.1166 108.06 28.4428 108.956 29.0338C109.339 29.2508 109.653 29.5746 109.862 29.967C110.071 30.3595 110.166 30.8045 110.136 31.25C110.083 33.3243 110.056 35.3987 110.136 37.4662C110.275 41.2297 107.849 42.6081 104.72 42.4933C104.039 42.4476 103.369 42.2972 102.732 42.0473C102.49 41.9693 102.267 41.8413 102.077 41.6713C101.887 41.5013 101.733 41.293 101.625 41.0595C101.517 40.826 101.458 40.5724 101.451 40.3145C101.444 40.0565 101.49 39.7999 101.585 39.5608C101.77 38.9865 102.042 38.6892 102.698 39.0135C103.175 39.2831 103.699 39.4536 104.241 39.5151C104.782 39.5766 105.331 39.5278 105.854 39.3716C106.151 39.305 106.416 39.1364 106.605 38.8941C106.795 38.6517 106.897 38.3504 106.894 38.0405ZM106.894 33.2094C106.894 32.9189 106.894 32.6216 106.894 32.3311C106.894 31.9054 107.087 31.3649 106.477 31.1689C106.178 31.0525 105.852 31.0315 105.542 31.1088C105.232 31.186 104.952 31.3579 104.74 31.6014C104.414 32.0718 104.234 32.6317 104.224 33.2079C104.215 33.784 104.376 34.3497 104.687 34.8311C104.883 35.0705 105.148 35.241 105.444 35.3186C105.74 35.3962 106.053 35.3769 106.337 35.2635C106.947 35.0743 106.908 34.5878 106.901 34.0946L106.894 33.2094Z" fill="#908B9E"/>
<path d="M46.9517 34.8716C47.3428 33.1824 47.7405 31.4932 48.105 29.7973C48.3834 28.5067 48.7679 28.1959 50.0406 28.2702C50.9752 28.3311 51.532 28.8108 51.426 29.7635C51.2743 31.0939 51.0149 32.4092 50.6504 33.6959C50.0038 36.2665 48.908 38.6972 47.4157 40.8716C46.9594 41.449 46.3787 41.9114 45.7187 42.223C45.3405 42.3999 44.9143 42.4402 44.5106 42.337C44.1069 42.2338 43.7497 41.9934 43.4981 41.6554C42.9148 40.9121 42.948 40.4662 43.6241 39.8176C43.7832 39.6689 43.9423 39.527 44.0815 39.3716C44.3996 39.0068 44.8902 38.6959 44.9564 38.2568C45.0227 37.8176 44.4858 37.5203 44.3333 37.1013C43.6572 35.2725 42.9944 33.4302 42.3448 31.5743C42.1459 30.9932 42.0597 30.3716 41.9006 29.777C41.8153 29.5333 41.8281 29.265 41.9361 29.0308C42.0442 28.7966 42.2387 28.6155 42.4773 28.527C42.7377 28.3594 43.0344 28.2595 43.3414 28.236C43.6485 28.2125 43.9565 28.2661 44.2385 28.3921C44.5205 28.5182 44.7679 28.7128 44.9589 28.959C45.1499 29.2051 45.2788 29.4953 45.3343 29.804C45.7254 31.2297 46.0767 32.6621 46.4479 34.0946C46.5142 34.3513 46.5937 34.6013 46.6666 34.8581L46.9517 34.8716Z" fill="#908B9E"/>
<path d="M66.4928 38.9932C63.4304 38.9932 61.4418 36.8649 61.4617 33.5878C61.4816 30.3108 63.5629 28.0946 66.4862 28.1081C69.542 28.1081 71.5107 30.2906 71.504 33.6419C71.4974 36.9933 69.6414 38.9932 66.4928 38.9932ZM64.8556 33.5878C64.9765 34.2018 65.1517 34.8034 65.3792 35.3852C65.492 35.5798 65.6509 35.7424 65.8413 35.8582C66.0318 35.974 66.2477 36.0393 66.4693 36.048C66.6909 36.0568 66.9111 36.0087 67.1098 35.9082C67.3084 35.8078 67.4792 35.6581 67.6064 35.473C67.9222 34.9128 68.0884 34.2779 68.0884 33.6318C68.0884 32.9856 67.9222 32.3508 67.6064 31.7906C67.4901 31.5759 67.3171 31.3987 67.107 31.2793C66.8969 31.1599 66.6582 31.1029 66.4179 31.1149C66.1776 31.1268 65.9454 31.2073 65.7478 31.347C65.5501 31.4868 65.3949 31.6802 65.2997 31.9054C65.1024 32.4492 64.9538 33.0101 64.8556 33.5811V33.5878Z" fill="#908B9E"/>
<path d="M115.207 35.0946C115.87 36.1419 116.917 36.446 118.369 36.1081C118.706 36.0351 119.034 35.9194 119.343 35.7635C119.88 35.4797 120.191 35.7027 120.443 36.1622C120.562 36.3739 120.634 36.6091 120.656 36.8518C120.677 37.0945 120.647 37.3391 120.568 37.5691C120.489 37.799 120.362 38.009 120.197 38.1847C120.031 38.3605 119.83 38.4979 119.608 38.5878C118.802 39.0128 117.904 39.2241 116.997 39.2024C116.089 39.1807 115.202 38.9267 114.416 38.4636C113.631 38.0006 112.972 37.3435 112.501 36.5528C112.029 35.7621 111.761 34.8633 111.72 33.9392C111.64 32.3108 111.879 30.75 113.092 29.5405C113.732 28.861 114.557 28.3919 115.46 28.1933C116.364 27.9947 117.305 28.0756 118.163 28.4257C118.995 28.6833 119.723 29.2078 120.239 29.9212C120.755 30.6346 121.031 31.4988 121.027 32.3851C121.093 33.4797 120.702 34.0743 119.641 34.2838C118.362 34.527 117.083 34.723 115.803 34.9595C115.624 34.973 115.452 35.0338 115.207 35.0946ZM117.785 31.9392C117.255 30.9662 116.691 30.7162 115.923 31.0135C115.618 31.0907 115.354 31.2848 115.186 31.5555C115.018 31.8261 114.959 32.1523 115.021 32.4662L117.785 31.9392Z" fill="#908B9E"/>
<path d="M86.2462 35.0743C86.3618 35.4022 86.5789 35.683 86.8646 35.8743C87.1503 36.0656 87.4893 36.1571 87.8304 36.1351C88.6695 36.1286 89.5028 35.9942 90.3029 35.7365C90.4117 35.6744 90.5327 35.638 90.6571 35.6298C90.7814 35.6216 90.9061 35.6419 91.0217 35.6892C91.1374 35.7365 91.2413 35.8096 91.3256 35.9031C91.41 35.9967 91.4727 36.1083 91.5093 36.2297C91.7073 36.6148 91.7488 37.0637 91.6247 37.4797C91.5007 37.8956 91.2211 38.2451 90.8464 38.4527C90.0509 38.9216 89.1505 39.1744 88.2316 39.1865C87.3126 39.1987 86.4061 38.97 85.5988 38.5223C84.7916 38.0745 84.1108 37.4229 83.6217 36.6298C83.1326 35.8367 82.8517 34.9288 82.8059 33.9932C82.7637 33.0565 82.8803 32.1193 83.1506 31.2229C83.4151 30.3323 83.9535 29.552 84.6864 28.9972C85.4193 28.4424 86.3077 28.1425 87.2206 28.1419C89.0236 28.0405 90.6343 28.6284 91.4961 30.3513C91.8492 31.2065 92.0274 32.1262 92.0197 33.054C92.0595 33.8513 91.3569 34.1689 90.694 34.2905C89.3683 34.5203 88.0426 34.723 86.7699 34.9662C86.5776 34.9662 86.4251 35.0203 86.2462 35.0743ZM88.7651 31.9865C88.3872 31.054 87.9166 30.7905 87.1609 30.9459C86.9929 30.9695 86.8313 31.0276 86.686 31.1168C86.5407 31.2059 86.4146 31.3241 86.3154 31.4644C86.2163 31.6046 86.1461 31.7639 86.1091 31.9326C86.0721 32.1014 86.0692 32.276 86.1004 32.446L88.7651 31.9865Z" fill="#908B9E"/>
<path d="M131.765 34.973C131.765 35.973 131.765 37 131.765 37.9595C131.765 38.5338 131.526 38.8108 130.963 38.8176H130.008C128.809 38.8176 128.391 38.3784 128.384 37.1554C128.384 35.5946 128.384 34.0338 128.384 32.473C128.384 31.3176 127.675 30.8514 126.581 31.1757C126.038 31.3379 125.918 31.6892 125.918 32.2027C125.918 34.0608 125.918 35.9122 125.918 37.7703C125.918 38.5473 125.633 38.8581 124.898 38.8176C124.606 38.8176 124.314 38.8176 124.023 38.8176C123.85 38.8363 123.675 38.8185 123.51 38.7654C123.344 38.7124 123.191 38.6251 123.06 38.5092C122.929 38.3932 122.822 38.251 122.747 38.0913C122.672 37.9317 122.63 37.758 122.624 37.5811C122.538 36.7297 122.538 35.8649 122.525 35.0068C122.525 33.7703 122.525 32.5338 122.525 31.2973C122.493 30.7812 122.623 30.268 122.895 29.832C123.168 29.396 123.57 29.0597 124.043 28.8716C125.526 28.1163 127.225 27.9247 128.835 28.3311C129.689 28.5063 130.453 28.9879 130.988 29.6884C131.523 30.3889 131.794 31.2619 131.752 32.1487C131.791 33.0946 131.765 34.0338 131.765 34.973Z" fill="#908B9E"/>
<path d="M148.337 33.3176C148.337 34.3176 148.337 35.3108 148.337 36.3041C148.374 36.6852 148.299 37.0691 148.12 37.4063C147.942 37.7435 147.669 38.0185 147.336 38.1959C146.395 38.7323 145.343 39.0317 144.266 39.0693C143.189 39.1069 142.119 38.8816 141.144 38.4122C140.548 38.1301 140.048 37.6738 139.707 37.1011C139.366 36.5284 139.199 35.8652 139.229 35.1959C139.169 33.2365 139.229 31.2703 139.229 29.3041C139.229 28.7027 139.514 28.4797 140.037 28.446C140.303 28.446 140.568 28.446 140.833 28.446C142.053 28.446 142.576 28.9595 142.603 30.2095C142.603 31.7162 142.603 33.2297 142.603 34.7365C142.603 35.4797 142.894 35.973 143.69 36.0473C144.75 36.1554 144.949 35.9798 144.949 34.8852C144.949 33.1081 144.982 31.3311 144.949 29.5541C144.949 28.7365 145.274 28.4257 146.023 28.446H146.686C147.853 28.446 148.363 28.9798 148.376 30.1892C148.35 31.2162 148.337 32.2703 148.337 33.3176Z" fill="#908B9E"/>
<path d="M154.422 28.0338C155.158 28.1793 155.886 28.3665 156.602 28.5946C156.949 28.7063 157.248 28.9338 157.451 29.2405C157.654 29.5471 157.75 29.9147 157.723 30.2838C157.723 31.2973 157.292 31.5541 156.337 31.3311C155.569 31.1748 154.788 31.0889 154.004 31.0743C153.838 31.0743 153.659 31.3379 153.487 31.473C153.639 31.6419 153.765 31.8851 153.958 31.9527C154.62 32.2027 155.336 32.3446 155.999 32.6284C157.57 33.25 158.299 34.3784 158.187 35.8987C158.126 36.6428 157.825 37.3455 157.331 37.8968C156.837 38.4482 156.177 38.8171 155.456 38.946C154.212 39.2453 152.912 39.2009 151.691 38.8176C150.405 38.4054 149.821 37.3108 150.246 36.2094C150.478 35.6148 150.769 35.4257 151.459 35.696C152.278 35.975 153.129 36.1431 153.991 36.196C154.229 36.196 154.501 35.8581 154.753 35.6757C154.562 35.4591 154.338 35.2744 154.09 35.1284C153.467 34.8986 152.798 34.8108 152.188 34.5676C151.559 34.3774 151.011 33.9792 150.629 33.4359C150.248 32.8927 150.054 32.2353 150.08 31.5676C150.074 30.8712 150.296 30.1927 150.71 29.6386C151.124 29.0846 151.707 28.6865 152.367 28.5068C153.043 28.3131 153.729 28.1553 154.422 28.0338Z" fill="#908B9E"/>
<path d="M77.2379 35.2635C77.6356 33.3514 78.0399 31.4392 78.4178 29.5203C78.6166 28.5541 79.3391 28.1081 80.5058 28.2838C80.7212 28.2886 80.9325 28.3448 81.1228 28.448C81.313 28.5511 81.477 28.6982 81.6013 28.8776C81.7257 29.0569 81.8072 29.2635 81.8391 29.4807C81.871 29.6979 81.8525 29.9197 81.7851 30.1284C81.3609 31.8716 80.8438 33.6014 80.3268 35.3176C80.0948 36.0879 79.7368 36.8176 79.4916 37.5878C79.3824 37.9528 79.1689 38.2763 78.8785 38.517C78.588 38.7577 78.2338 38.9047 77.861 38.9392C76.1176 39.2703 75.13 38.7365 74.5467 37.0135C73.7844 34.6351 73.1016 32.2297 72.3526 29.8514C72.1073 29.0608 72.4454 28.6892 73.1016 28.4324C73.3609 28.2957 73.6485 28.2243 73.9405 28.224C74.2324 28.2238 74.5202 28.2947 74.7797 28.431C75.0392 28.5672 75.263 28.7648 75.4324 29.0072C75.6017 29.2496 75.7117 29.5298 75.7531 29.8243C76.1309 31.3919 76.4822 32.9662 76.8468 34.5541C76.9064 34.8041 76.986 35.0473 77.0523 35.2973L77.2379 35.2635Z" fill="#908B9E"/>
<path d="M57.7099 39.1351C54.9988 38.9865 53.0699 37.473 52.5462 34.9527C51.9629 32.2095 53.0301 29.6014 55.1977 28.6351C55.8168 28.3182 56.4943 28.1375 57.1864 28.1049C57.8784 28.0723 58.5695 28.1885 59.2146 28.4459C59.6495 28.5917 60.011 28.9053 60.2217 29.3196C60.4324 29.734 60.4754 30.2159 60.3415 30.6622C60.1559 31.3919 59.8377 31.5878 59.1351 31.3378C58.6906 31.1162 58.1873 31.0484 57.7016 31.1447C57.2159 31.2411 56.7743 31.4963 56.4438 31.8716C56.1108 32.3268 55.9125 32.8697 55.8726 33.436C55.8327 34.0024 55.9527 34.5685 56.2185 35.0676C56.5014 35.4938 56.9162 35.8113 57.3968 35.9693C57.8774 36.1272 58.396 36.1167 58.8699 35.9392C59.4996 35.7433 60.0299 35.5203 60.3813 36.3311C60.5743 36.7063 60.6207 37.142 60.5113 37.5507C60.4018 37.9594 60.1446 38.3106 59.7913 38.5338C59.1153 38.7933 58.419 38.9945 57.7099 39.1351Z" fill="#908B9E"/>
<path d="M93.5907 34.0405C93.5907 33.0405 93.5907 32.0473 93.5907 31.054C93.5472 30.6587 93.6293 30.2595 93.825 29.9153C94.0207 29.5711 94.3197 29.3 94.6778 29.1419C95.8125 28.651 97.008 28.3213 98.2307 28.1621C99.636 28.0338 100.319 28.9392 100.14 30.277C100.136 30.4927 100.049 30.6982 99.8979 30.8488C99.7464 30.9994 99.5427 31.0829 99.3311 31.0811C96.9713 31.3784 96.9713 31.3986 96.9713 33.7838C96.9713 35.1351 96.9713 36.527 96.9713 37.8986C96.9713 38.5743 96.7062 38.8378 96.0831 38.8243H95.924C93.9354 38.8919 93.5841 38.5135 93.5841 36.5338L93.5907 34.0405Z" fill="#908B9E"/>
<path d="M133.8 33.2906C133.8 31.9798 133.8 30.6622 133.8 29.3446C133.778 29.2321 133.783 29.116 133.812 29.0053C133.841 28.8946 133.895 28.7923 133.969 28.7061C134.044 28.62 134.136 28.5524 134.24 28.5084C134.344 28.4645 134.457 28.4454 134.569 28.4527C134.938 28.4325 135.307 28.4325 135.676 28.4527C136.564 28.5068 137.114 28.9392 137.134 29.8446C137.2 32.6081 137.187 35.3716 137.181 38.1352C137.181 38.3176 137.021 38.6554 136.922 38.6554C136.126 38.7703 135.318 38.7703 134.522 38.6554C133.86 38.5 133.8 37.7432 133.807 37.1014L133.8 33.2906Z" fill="#908B9E"/>
<path d="M135.477 27.6757C135.231 27.6855 134.986 27.6428 134.758 27.5504C134.529 27.4581 134.322 27.318 134.15 27.1392C133.978 26.9604 133.844 26.7468 133.757 26.5122C133.671 26.2776 133.634 26.0272 133.648 25.777C133.625 25.5177 133.657 25.2565 133.739 25.0103C133.822 24.764 133.955 24.5381 134.128 24.3472C134.302 24.1563 134.513 24.0045 134.747 23.9016C134.982 23.7988 135.235 23.7471 135.49 23.75C135.985 23.7778 136.45 23.9993 136.788 24.3681C137.127 24.737 137.312 25.2248 137.307 25.7297C137.322 25.9826 137.286 26.2359 137.201 26.4738C137.115 26.7117 136.983 26.929 136.811 27.1119C136.639 27.2948 136.431 27.4393 136.202 27.5364C135.972 27.6334 135.726 27.6808 135.477 27.6757Z" fill="#908B9E"/>
<path d="M52.7252 13.223C51.6643 11.4217 50.3052 9.82144 48.7082 8.49326C48.0453 7.94596 47.3825 7.41215 46.7196 6.89864L46.4478 6.93245C41.5744 8.03821 36.9502 10.074 32.8194 12.9325L32.5476 13.1081C32.7269 13.0592 32.9152 13.0553 33.0964 13.0964C33.2776 13.1376 33.4463 13.2227 33.5883 13.3446L33.6413 13.3987C35.7095 15.8176 37.824 18.1892 39.859 20.6284C40.9593 21.9797 42.0133 23.3311 43.5511 24.1284C44.6564 24.7901 45.915 25.139 47.1969 25.139C48.4787 25.139 49.7373 24.7901 50.8426 24.1284C51.8831 23.5445 52.744 22.6775 53.3292 21.624C53.9144 20.5705 54.201 19.372 54.1569 18.1622C54.1437 16.4115 53.6475 14.6999 52.7252 13.223Z" fill="#645F71"/>
</g>
<defs>
<clipPath id="clip0_523_3824">
<rect width="158" height="42" fill="white" transform="translate(0.199951 0.5)"/>
</clipPath>
</defs>
</svg>
