<svg width="81" height="41" viewBox="0 0 81 41" fill="none" xmlns="http://www.w3.org/2000/svg">
<g clip-path="url(#clip0_548_2830)">
<path d="M20.5567 10.251C20.6019 12.4985 20.067 14.5806 18.6472 16.3767C17.8898 17.373 16.9368 18.2076 15.8452 18.8303C14.7536 19.4529 13.5461 19.8508 12.2951 19.9999C9.32366 20.3891 6.63143 19.78 4.29318 17.8594C2.39741 16.3027 1.22927 14.3412 0.920516 11.9069C0.627497 9.60104 0.780891 7.33992 1.83104 5.22084C3.2627 2.32924 5.59505 0.616857 8.82613 0.144004C11.8074 -0.291876 14.539 0.268541 16.8989 2.19887C18.9028 3.83926 20.1496 5.91163 20.4623 8.49383C20.4997 8.7935 20.537 9.09317 20.5547 9.39478C20.5724 9.6964 20.5567 9.96299 20.5567 10.251ZM14.6786 14.6059H14.6137C14.6354 14.2696 14.6354 13.9323 14.6137 13.596C14.3178 11.2649 13.6612 8.99274 12.6668 6.85928C11.9884 5.40764 11.245 3.99103 9.9982 2.91106C8.79466 1.86806 7.12307 2.24946 6.6039 3.71277C6.45737 4.14146 6.3765 4.58944 6.36398 5.04182C6.27155 7.93147 6.99918 10.6577 8.15946 13.2788C8.79466 14.7168 9.57735 16.0692 10.7829 17.1375C11.09 17.4303 11.4723 17.6344 11.8882 17.7277C12.3042 17.821 12.738 17.7999 13.1427 17.6668C14.008 17.4119 14.3954 16.7425 14.5193 15.9155C14.5901 15.4718 14.6275 15.0379 14.6786 14.6059Z" fill="#908B9E"/>
<path d="M78.7357 35.5749C78.8922 35.8491 79.0334 36.1317 79.1585 36.4213C79.6226 37.7309 80.0729 39.0444 80.5351 40.3579C80.6924 40.819 80.6157 40.9416 80.1221 40.9416C78.9107 40.9416 77.7013 40.9416 76.4918 40.9416C75.9333 40.9416 75.3748 40.9864 74.8163 40.9903C74.5587 40.9903 74.3011 40.9436 73.9254 40.9066C74.2598 40.5174 74.5017 40.2158 74.7475 39.9337L72.0631 37.7932C71.6698 38.4217 71.6698 38.6338 72.0926 39.2293C72.2961 39.4957 72.4659 39.7859 72.598 40.0932C72.7947 40.6031 72.5213 40.9514 71.9707 40.9514C70.0618 40.9514 68.1529 40.9514 66.244 40.9514C65.7032 40.9514 65.4574 40.6439 65.6206 40.1341C65.6938 39.8565 65.8142 39.5933 65.9766 39.3557C66.381 38.8081 66.5887 38.1423 66.5665 37.4643C66.5665 34.1252 66.5842 30.7879 66.5901 27.4488C66.5901 26.7541 66.4958 26.6704 65.8035 26.6704H64.9343C64.8774 26.6548 64.8221 26.6339 64.7691 26.6082C65.0051 26.289 65.2332 25.9855 65.4554 25.68C66.5161 24.2219 67.5741 22.7624 68.6295 21.3017C68.8733 20.9651 69.0228 21.1169 69.2018 21.3659C70.189 22.7748 71.1788 24.1816 72.1713 25.5866C72.4033 25.9154 72.6373 26.2423 72.9579 26.6802C72.5824 26.6548 72.2055 26.6607 71.8311 26.6977C71.6462 26.7308 71.3473 26.9312 71.3433 27.0635C71.306 28.2525 71.3217 29.4433 71.3217 30.6615C72.1083 30.284 72.8537 29.9337 73.5892 29.5679C73.835 29.4453 73.9018 29.2526 73.7681 28.9841C73.4476 28.342 73.1526 27.6862 72.7848 26.9098L80.4446 28.5113L77.3355 34.5202H77.1919C77.0425 34.0921 76.8812 33.6679 76.7494 33.2359C76.6177 32.8039 76.3738 32.7689 76.0277 32.9907C75.9569 33.0355 75.8802 33.0744 75.8114 33.1211C74.6472 33.8994 74.6314 33.6854 75.5439 34.8237C75.9856 35.3367 76.4669 35.8148 76.9835 36.254C77.6128 36.8241 77.7504 36.8008 78.2794 36.1547C78.3994 36.001 78.5154 35.8434 78.7357 35.5749Z" fill="#908B9E"/>
<path d="M43.6855 19.6613C43.6855 20.6343 43.6501 21.5897 43.7072 22.5412C43.7249 22.8448 43.9746 23.1445 44.1496 23.4286C44.3247 23.7127 44.5705 23.9579 44.7396 24.2497C45.0916 24.8627 44.8281 25.3336 44.1241 25.3375C42.0788 25.3518 40.0343 25.3518 37.9903 25.3375C37.2981 25.3375 37.0464 24.9308 37.3158 24.3023C37.3675 24.1628 37.4397 24.0317 37.5302 23.9131C38.2067 23.1347 38.3719 22.2416 38.3601 21.2433C38.3247 18.377 38.3365 15.5107 38.3601 12.6444C38.3808 12.3168 38.3237 11.989 38.1932 11.6872C38.0628 11.3854 37.8626 11.1181 37.6088 10.9067C37.5321 10.8425 37.4613 10.7686 37.3905 10.6966C36.7042 10.0077 36.7848 9.43175 37.6659 8.98808C38.95 8.34204 40.246 7.72131 41.538 7.09278C41.6594 7.03338 41.7875 6.98831 41.9195 6.95851C42.4977 6.82425 42.7947 7.03636 42.8615 7.62012C42.8753 7.73104 42.8812 7.84001 42.891 7.96844C46.6275 5.48547 51.4161 7.48391 52.2735 11.8991C52.6668 13.9112 52.3896 15.8571 51.1231 17.5656C49.4889 19.7703 46.6 20.7432 43.9294 19.7061C43.8496 19.6842 43.768 19.6692 43.6855 19.6613ZM43.6659 12.6931C43.6659 13.1815 43.6659 13.666 43.6659 14.1603C43.6659 14.6545 43.6541 15.1721 43.6855 15.6781C43.7138 16.557 44.0099 17.4069 44.5351 18.1163C45.1959 18.9803 46.3601 18.8518 46.7848 17.8614C46.9265 17.5544 47.0117 17.225 47.0366 16.8884C47.1054 14.9698 47.1172 13.0433 46.6177 11.1714C46.365 10.3409 46.0359 9.53521 45.6344 8.76431C45.5433 8.58918 45.3966 8.44855 45.2167 8.36415C45.0369 8.27974 44.834 8.25625 44.6393 8.29729C44.434 8.31936 44.2412 8.40559 44.0888 8.54345C43.9364 8.68131 43.8323 8.86364 43.7917 9.06397C43.7295 9.27223 43.6932 9.48721 43.6836 9.70417C43.66 10.7024 43.6659 11.6968 43.6659 12.6931Z" fill="#908B9E"/>
<path d="M27.8212 19.6535C27.8212 20.6148 27.7858 21.5255 27.8409 22.4284C27.8625 22.7553 28.0827 23.0803 28.2538 23.3819C28.4033 23.6446 28.6648 23.8508 28.7809 24.1213C28.8969 24.3918 29.0247 24.7771 28.9107 24.9892C28.7966 25.2013 28.3895 25.3239 28.1083 25.3278C26.1417 25.355 24.1889 25.3472 22.2283 25.3414C21.3964 25.3414 21.1211 24.8802 21.5144 24.1544C21.6282 23.9489 21.7598 23.7536 21.9077 23.5706C22.2938 23.0737 22.4933 22.4594 22.4721 21.8329C22.4721 18.7195 22.4721 15.6255 22.4721 12.5218C22.4855 12.2288 22.4318 11.9366 22.315 11.667C22.1982 11.3975 22.0213 11.1575 21.7976 10.9651C21.6594 10.8426 21.5281 10.7127 21.4043 10.5759C20.8969 10.0252 20.9382 9.46482 21.6009 9.12235C22.9992 8.39847 24.4131 7.70574 25.8468 7.05581C26.6334 6.69776 26.95 6.9663 27.0267 7.83417C27.6678 7.56563 28.3109 7.14338 29.009 7.02468C33.1742 6.30859 36.3187 9.02311 36.5154 12.7281C36.6118 14.5047 36.3187 16.1704 35.2076 17.6337C33.5478 19.8092 30.657 20.7179 28.0749 19.7216C27.9917 19.694 27.907 19.6713 27.8212 19.6535ZM27.8212 12.7495C27.8212 13.7614 27.7976 14.7732 27.8212 15.7851C27.8404 16.6322 28.1341 17.4507 28.6589 18.1202C29.3315 18.988 30.478 18.8538 30.8949 17.8458C31.0622 17.4782 31.1537 17.0813 31.1644 16.6783C31.1349 15.2325 31.1644 13.773 30.9441 12.3506C30.7769 11.2239 30.3541 10.1206 29.9412 9.04257C29.6934 8.40821 29.1545 8.19805 28.6963 8.30118C28.1378 8.42572 27.8369 8.81101 27.8173 9.55434C27.7996 10.6265 27.8212 11.689 27.8212 12.7495Z" fill="#908B9E"/>
<path d="M45.8212 29.2137C47.5361 26.8105 51.5931 27.0226 53.3768 29.1223C54.1496 30.0329 54.4859 31.1187 54.6079 32.2629C54.7888 33.95 54.8714 35.6449 55.0484 37.332C55.0936 37.7659 55.3335 38.1823 55.4968 38.6026C55.5688 38.7549 55.6496 38.9031 55.7386 39.0463C56.2814 40.0543 56.0395 40.4668 54.9048 40.4668C53.1349 40.4668 51.365 40.4668 49.5951 40.4668C48.7121 40.4668 48.4997 40.1146 48.8812 39.3207C48.9502 39.167 49.0352 39.021 49.1349 38.8848C49.6678 38.1979 49.7426 37.4332 49.6639 36.5925C49.5321 35.2032 49.5066 33.8021 49.3945 32.4108C49.3378 31.7108 49.2307 31.0156 49.0739 30.3306C49.0328 30.0768 48.9027 29.8455 48.7063 29.6771C48.51 29.5088 48.26 29.4143 48.0002 29.4102C47.5086 29.3849 47.0543 29.6943 46.8655 30.2606C46.7387 30.6242 46.6684 31.0047 46.657 31.3892C46.6354 33.2612 46.657 35.1312 46.6374 37.0031C46.6288 37.6622 46.8654 38.3014 47.3021 38.7992C47.4768 39.0045 47.6291 39.2276 47.7563 39.4647C48.069 40.0718 47.8448 40.4571 47.1664 40.461C45.0372 40.4753 42.9074 40.4753 40.777 40.461C40.1162 40.461 39.8743 40.029 40.187 39.4355C40.3551 39.1415 40.5528 38.8651 40.777 38.6104C41.1455 38.1631 41.3389 37.5994 41.3217 37.0226C41.3217 35.7072 41.3217 34.3917 41.3217 33.0763C41.3382 32.8154 41.2935 32.5543 41.1912 32.3133C41.0888 32.0723 40.9316 31.8579 40.7318 31.6869C40.5027 31.4852 40.2854 31.2709 40.0808 31.0448C39.6482 30.5895 39.6678 30.1555 40.2205 29.8383C41.0071 29.3849 41.835 28.9977 42.6511 28.593C43.3493 28.2466 44.0454 27.8983 44.7554 27.583C45.3689 27.3126 45.7819 27.5831 45.833 28.2485C45.8389 28.5307 45.8212 28.8167 45.8212 29.2137Z" fill="#908B9E"/>
<path d="M33.5203 39.3168C31.9923 41.1537 28.2538 41.1887 26.3659 39.4413C25.8965 39.0236 25.5201 38.5138 25.2608 37.9443C25.0014 37.3747 24.8648 36.758 24.8595 36.1333C24.832 34.7011 24.8379 33.267 24.8595 31.8329C24.8947 31.139 24.6746 30.456 24.2401 29.9103C24.0832 29.7119 23.9475 29.498 23.835 29.2721C23.5813 28.7798 23.8035 28.2816 24.3502 28.2018C25.7071 28.0073 27.07 27.8399 28.4308 27.6687C28.7655 27.6128 29.1042 27.5848 29.4436 27.585C30.1103 27.6122 30.2873 27.8088 30.2794 28.4548C30.246 31.1791 30.1968 33.9033 30.1791 36.6431C30.1891 37.0951 30.2585 37.5438 30.3856 37.978C30.4459 38.2003 30.5762 38.3979 30.7576 38.542C30.939 38.6862 31.162 38.7694 31.3944 38.7797C31.6098 38.8052 31.8277 38.7594 32.0141 38.6496C32.2004 38.5398 32.3449 38.3721 32.4249 38.1726C32.6452 37.7402 32.7787 37.2698 32.8182 36.7871C32.8615 35.0514 32.8182 33.3137 32.8458 31.578C32.8481 30.9713 32.6476 30.3808 32.2755 29.8987C32.0657 29.6208 31.9085 29.3076 31.8114 28.9744C31.7091 28.5424 31.9706 28.2563 32.4013 28.196C33.4908 28.0442 34.5823 27.9119 35.6737 27.7718C36.1791 27.7076 36.6806 27.6122 37.1879 27.5772C37.9746 27.5305 38.2381 27.799 38.2381 28.5735C38.2381 31.4924 38.2381 34.4112 38.2381 37.33C38.2268 37.6815 38.27 38.0325 38.3659 38.3711C38.4328 38.5812 38.6845 38.7291 38.83 38.9218C38.9756 39.1144 39.243 39.3713 39.2391 39.5931C39.2228 39.7259 39.174 39.8528 39.0969 39.9627C39.0198 40.0725 38.9167 40.1621 38.7966 40.2236C38.1532 40.4258 37.489 40.5563 36.8163 40.6128C36.1716 40.6442 35.5254 40.6063 34.889 40.4999C34.5645 40.469 34.258 40.3382 34.0125 40.126C33.767 39.9138 33.5949 39.6308 33.5203 39.3168Z" fill="#908B9E"/>
<path d="M60.6727 6.86707C63.2155 6.86707 65.3649 7.7758 66.8871 9.78591C69.0975 12.7048 68.3246 16.6549 65.2902 18.737C62.185 20.86 57.3335 20.5895 54.6176 17.513C53.6835 16.4545 53.2548 15.2033 53.1624 13.7867C52.9048 9.89488 56.3305 7.41386 59.1034 7.02663C59.6245 6.95074 60.1496 6.91766 60.6727 6.86707ZM62.5606 15.7793C62.4387 14.8511 62.3875 13.6991 62.1162 12.5997C61.8054 11.436 61.3983 10.2996 60.8989 9.20214C60.8039 9.00912 60.6702 8.83727 60.5058 8.69709C60.3415 8.55691 60.15 8.45134 59.9431 8.38681C59.009 8.16692 58.7297 8.76042 58.6117 9.67499C58.358 11.6365 58.6393 13.5668 59.1486 15.4582C59.4141 16.4428 59.7228 17.4352 60.4308 18.2272C60.7415 18.5736 61.1309 18.7759 61.6108 18.6319C62.0906 18.4879 62.303 18.1007 62.3679 17.6454C62.4485 17.0986 62.4859 16.5459 62.5606 15.7793Z" fill="#908B9E"/>
<path d="M14.3129 29.7099H13.6423C13.0307 29.7099 12.8714 29.5426 12.8557 28.9316C12.8557 28.8148 12.8557 28.6961 12.8557 28.5793C12.8694 27.8749 12.954 27.801 13.6541 27.7815C14.6079 27.764 15.4968 27.5655 16.2676 26.9545C16.8487 26.4828 17.2689 25.8455 17.4712 25.1293C17.7013 24.4015 17.774 24.3509 18.5469 24.3509H18.9048C19.5558 24.3509 19.8035 24.5747 19.8193 25.2168C19.835 25.8921 19.8429 26.5673 19.8193 27.2406C19.8016 27.6453 19.9117 27.8243 20.3542 27.7932C20.9992 27.7601 21.6482 27.7932 22.2952 27.7932C22.7711 27.7835 22.9795 28.0345 23.009 28.4665C23.0304 28.7011 23.0251 28.9374 22.9933 29.1709C22.9343 29.5212 22.7436 29.743 22.3384 29.7352C21.6914 29.7216 21.0425 29.7586 20.3955 29.7216C19.9471 29.6982 19.8055 29.8364 19.8173 30.2859C19.8409 31.9866 19.8173 33.6893 19.8271 35.3919C19.8271 35.9504 19.7799 36.5478 20.4446 36.8085C21.1408 37.079 21.7367 36.8202 22.2696 36.3765C22.425 36.2462 22.539 36.0457 22.7141 35.966C22.9126 35.8585 23.1437 35.8253 23.365 35.8726C23.5007 35.9251 23.6147 36.2092 23.6226 36.3941C23.7052 38.5112 21.9864 40.4046 19.8311 40.675C18.6275 40.8249 17.4948 40.7237 16.4427 40.1029C15.8677 39.7832 15.3838 39.3247 15.0362 38.7701C14.6885 38.2155 14.4884 37.5829 14.4545 36.9311C14.3266 34.851 14.3561 32.7611 14.3207 30.677C14.3089 30.3696 14.3129 30.0855 14.3129 29.7099Z" fill="#908B9E"/>
<path d="M6.55275 29.7819C6.97753 29.2857 7.39641 28.6475 7.95884 28.1785C8.72974 27.5325 9.72876 27.3534 10.7022 27.4955C12.2283 27.7173 12.7809 28.7681 12.8772 30.0738C12.9421 30.9631 12.8025 31.8368 12.126 32.5548C11.5203 33.1989 9.43967 33.2981 8.93623 32.4225C8.79981 32.1767 8.68405 31.9203 8.59011 31.6558C8.52718 31.4846 8.52522 31.29 8.46229 31.1187C8.34036 30.7821 8.19483 30.4007 7.75826 30.4377C7.32168 30.4747 7.25678 30.9047 7.18992 31.2394C7.14916 31.5405 7.13797 31.8449 7.15649 32.1481C7.15649 33.5647 7.22728 34.9852 7.13288 36.396C7.07998 36.8971 7.15076 37.4034 7.33915 37.8715C7.52755 38.3396 7.82792 38.7554 8.2145 39.0833C8.40789 39.2651 8.53977 39.5016 8.59208 39.7605C8.67468 40.2547 8.48982 40.4299 7.97064 40.4299C5.82315 40.4299 3.67566 40.4299 1.52816 40.4299H1.47704C0.993261 40.4123 0.745469 40.1263 0.906727 39.6671C1.05227 39.2933 1.24452 38.939 1.479 38.6124C1.79548 38.1739 1.96221 37.647 1.95491 37.1082C1.93721 35.7928 1.90968 34.4754 1.96474 33.1619C1.99817 32.3836 1.74449 31.7648 1.14469 31.3094C0.2145 30.6031 0.58421 29.8559 1.44753 29.4764C2.73564 28.9121 4.00408 28.2972 5.27448 27.7076C5.41359 27.6454 5.55605 27.5908 5.70122 27.5441C6.21646 27.371 6.53505 27.5772 6.54881 28.1143C6.56454 28.7195 6.55275 29.3227 6.55275 29.7819Z" fill="#908B9E"/>
<path d="M63.2116 32.837C63.2116 34.1699 63.2489 35.5029 63.1978 36.8338C63.1629 37.5781 63.4233 38.3064 63.9234 38.8634C64.1118 39.0797 64.2668 39.3223 64.3836 39.5834C64.5803 40.0582 64.3266 40.4279 63.8035 40.4299C61.6049 40.4299 59.4063 40.4299 57.2076 40.4299C56.7553 40.4299 56.5685 40.1788 56.6393 39.7897C56.6944 39.4778 56.8216 39.1828 57.011 38.9276C57.5087 38.3027 57.7534 37.5167 57.6973 36.7229C57.6521 35.5554 57.6639 34.3879 57.6973 33.232C57.7131 32.6226 57.5111 32.0273 57.127 31.5507C56.9777 31.3688 56.846 31.1733 56.7337 30.967C56.537 30.5778 56.5547 30.2139 57.0149 29.994C58.7042 29.1767 60.3876 28.34 62.0886 27.55C62.6983 27.2659 63.2057 27.6434 63.2096 28.3283C63.2175 29.8345 63.2116 31.3367 63.2116 32.837Z" fill="#908B9E"/>
<path d="M60.6708 26.4778C59.245 26.4583 58.189 26.04 57.4928 24.9795C56.5961 23.6173 57.1664 21.7376 58.6944 21.0021C59.2279 20.7371 59.814 20.5923 60.4108 20.5782C61.0075 20.564 61.6 20.6809 62.1457 20.9203C62.719 21.1472 63.2018 21.5528 63.5212 22.0757C63.8406 22.5985 63.9791 23.2101 63.9156 23.8178C63.8055 25.0106 62.7967 26.0945 61.5558 26.3474C61.2096 26.4194 60.8478 26.4525 60.6708 26.4778Z" fill="#908B9E"/>
</g>
<defs>
<clipPath id="clip0_548_2830">
<rect width="80" height="41" fill="white" transform="translate(0.599976)"/>
</clipPath>
</defs>
</svg>
