<svg width="203" height="43" viewBox="0 0 203 43" fill="none" xmlns="http://www.w3.org/2000/svg">
<g clip-path="url(#clip0_523_3826)">
<path d="M0.281908 29.265C0.245331 29.2663 0.208885 29.2601 0.174729 29.2469C0.140574 29.2336 0.109413 29.2136 0.0831064 29.1879C0.0568001 29.1623 0.0358854 29.1316 0.0216084 29.0976C0.00733144 29.0637 -1.20278e-05 29.0272 9.00566e-06 28.9903V26.1075C-0.000241351 26.0398 0.0248009 25.9744 0.0701735 25.9243C0.115546 25.8743 0.177932 25.8433 0.244943 25.8374C2.25063 25.6605 15.9855 24.1888 25.4455 15.8014C25.4455 15.8014 29.2581 28.2358 0.281908 29.265ZM30.4042 0C30.4042 0 21.9933 15.7223 0.207971 21.1058C0.148498 21.1196 0.0954704 21.1535 0.0576567 21.2017C0.0198431 21.25 -0.000490999 21.3098 9.00566e-06 21.3713V24.1655C0.000214586 24.2051 0.00887029 24.2441 0.0253881 24.2799C0.0419059 24.3157 0.0658947 24.3475 0.0957219 24.3732C0.125549 24.3988 0.160512 24.4176 0.198226 24.4284C0.235939 24.4392 0.275517 24.4417 0.314261 24.4357C3.72486 23.8396 33.2926 18.116 30.4042 0ZM26.6101 32.9674C26.6107 33.0754 26.5901 33.1825 26.5495 33.2825C26.5089 33.3825 26.4491 33.4734 26.3735 33.55C26.2979 33.6266 26.208 33.6874 26.109 33.7289C26.0101 33.7704 25.9039 33.7917 25.7967 33.7917H10.6708C17.4643 33.6147 17.7832 28.2032 17.7832 28.2032C11.2347 30.5783 1.95486 30.7786 0.268045 30.7926C0.196534 30.7938 0.128366 30.8233 0.0782266 30.8747C0.0280876 30.9261 -1.26813e-06 30.9953 9.00566e-06 31.0673V33.8057V34.3785C9.00566e-06 35.2505 0.343758 36.0868 0.955636 36.7034C1.56751 37.32 2.3974 37.6664 3.26272 37.6664H27.1785C28.0443 37.6664 28.8746 37.3201 29.4872 36.7037C30.0998 36.0872 30.4446 35.2509 30.4459 34.3785V10.7671C30.446 10.7082 30.4273 10.6507 30.3925 10.6033C30.3578 10.5559 30.3088 10.521 30.2529 10.5037C30.1969 10.4865 30.1369 10.4879 30.0818 10.5076C30.0267 10.5274 29.9793 10.5645 29.9467 10.6135C29.0055 12.0095 27.9414 13.3172 26.7672 14.5207C26.6671 14.6223 26.6106 14.7595 26.6101 14.9026V32.9674ZM4.69998 10.837H18.0466C18.1645 10.8374 18.2794 10.7998 18.3747 10.7299C19.7603 9.71103 21.0945 8.62302 22.3722 7.46994C22.4089 7.43185 22.4337 7.3839 22.4439 7.33188C22.4541 7.27985 22.4491 7.22597 22.4296 7.17673C22.41 7.1275 22.3767 7.08502 22.3338 7.05441C22.2908 7.0238 22.24 7.00637 22.1874 7.00423H3.31356C2.44781 7.00547 1.61793 7.35291 1.00619 7.97025C0.394444 8.58759 0.0508369 9.42436 0.0508377 10.2968V19.2337C0.0505241 19.2751 0.059504 19.316 0.0770983 19.3535C0.0946926 19.3909 0.120449 19.4238 0.152446 19.4498C0.184443 19.4758 0.22185 19.4941 0.261874 19.5035C0.301899 19.5128 0.343503 19.5129 0.38358 19.5038C0.896556 19.3874 1.99646 19.1126 3.50766 18.619C3.61693 18.5834 3.71212 18.5136 3.77942 18.4198C3.84673 18.3261 3.88265 18.2131 3.88199 18.0974V11.6613C3.88199 11.4427 3.96817 11.233 4.12157 11.0784C4.27497 10.9239 4.48304 10.837 4.69998 10.837Z" fill="#645F71"/>
<path d="M39.8504 29.9263C38.7566 28.939 38.0596 27.5822 37.8909 26.1122L40.7885 25.3252C40.9448 26.3539 41.4415 27.2992 42.1981 28.0076C42.9311 28.6101 43.8374 28.9582 44.7824 29.0001C45.7274 29.0421 46.6606 28.7757 47.4434 28.2405C47.7499 28.0251 48 27.738 48.1723 27.4038C48.3445 27.0696 48.4338 26.6983 48.4324 26.3218C48.4324 24.8222 47.3094 23.8768 45.6133 23.5275L43.2656 23.0618C41.918 22.8341 40.6813 22.1685 39.7441 21.1664C38.9084 20.2715 38.4509 19.084 38.4686 17.8552C38.39 14.7489 41.3893 12.0152 44.7306 12.0711C47.3094 12.0944 49.0332 13.0025 49.999 14.2506C50.6223 14.9784 51.0446 15.8585 51.2237 16.8027L48.4509 17.6689C48.2475 16.8889 47.8101 16.1912 47.1985 15.671C46.5437 15.0903 45.695 14.7808 44.823 14.8048C43.979 14.7772 43.155 15.0678 42.5123 15.6198C42.2126 15.8466 41.9693 16.1405 41.8016 16.4784C41.634 16.8162 41.5466 17.1887 41.5465 17.5665C41.5513 18.165 41.7846 18.7388 42.1981 19.1685C42.6697 19.655 43.2805 19.9807 43.945 20.0999L46.3481 20.5656C49.7125 21.2502 51.5379 23.2481 51.5379 26.1122C51.5246 26.8337 51.3677 27.5451 51.0763 28.2043C50.785 28.8635 50.3652 29.457 49.8419 29.9496C48.4959 31.1367 46.7543 31.7672 44.9663 31.7147C42.7989 31.7147 40.9826 31.0021 39.8504 29.9263Z" fill="#645F71"/>
<path d="M56.6955 25.8235C56.7464 27.7701 58.6273 29.2697 60.5036 29.2418C62.1765 29.2418 63.452 28.5292 63.9465 27.0343L66.3774 27.7934C66.1197 28.5934 65.6851 29.3239 65.1062 29.9297C64.5274 30.5356 63.8196 31.001 63.0361 31.2909C62.2344 31.5919 61.3868 31.7495 60.5313 31.7566C59.6398 31.7761 58.7535 31.6144 57.9253 31.2812C57.0971 30.9481 56.344 30.4502 55.7109 29.8174C55.0777 29.1846 54.5776 28.4298 54.2402 27.598C53.9028 26.7662 53.7351 25.8744 53.7471 24.9759C53.7381 23.7913 54.0258 22.6236 54.5835 21.5809C55.1246 20.5552 55.9373 19.7008 56.9312 19.1126C57.9361 18.496 59.0914 18.1735 60.2679 18.1812C62.2505 18.1812 63.794 18.7866 64.9124 20.044C66.0308 21.3015 66.6084 22.9081 66.6084 24.934C66.6069 25.2327 66.59 25.5312 66.5576 25.8281L56.6955 25.8235ZM57.9988 21.4831C57.3628 22.0224 56.9532 22.7845 56.8526 23.616H63.66C63.6494 23.205 63.5534 22.8007 63.3783 22.4294C63.2032 22.058 62.9528 21.7277 62.6433 21.4598C61.9767 20.9274 61.146 20.6472 60.2956 20.6681C59.4596 20.6476 58.6454 20.9376 58.008 21.4831H57.9988Z" fill="#645F71"/>
<path d="M78.3328 24.1935C78.3328 22.2189 77.367 20.9335 75.4629 20.9335C75.0554 20.9139 74.6484 20.9837 74.2702 21.1381C73.892 21.2925 73.5516 21.5278 73.2724 21.8277C72.7057 22.4902 72.4159 23.3481 72.4637 24.2214V31.5004H69.566V18.4327H72.4082V20.1977C72.7849 19.6905 73.2557 19.2619 73.7946 18.9357C74.2239 18.6581 74.6909 18.4447 75.181 18.3023C75.5764 18.2198 75.9789 18.1761 76.3826 18.1719C77.977 18.1719 79.1555 18.6376 80.0104 19.6435C80.8669 20.7217 81.3024 22.0783 81.2351 23.4577V31.5004H78.3652L78.3328 24.1935Z" fill="#645F71"/>
<path d="M85.7411 20.3281C86.3372 19.6439 87.0725 19.0972 87.8971 18.7251C88.7217 18.3531 89.6162 18.1644 90.5196 18.1719C91.3065 18.1923 92.08 18.3812 92.7887 18.7261C93.583 19.0293 94.26 19.5809 94.7205 20.3002V11.5728H97.6135V31.5004H94.7713V29.4513C94.4379 29.9971 93.982 30.4565 93.4404 30.7926C92.9241 31.0981 92.3712 31.336 91.7951 31.5004C91.3547 31.6295 90.8996 31.7015 90.4411 31.7147C89.2737 31.7193 88.1303 31.381 87.1506 30.7413C86.1754 30.1271 85.3784 29.2645 84.8399 28.2405C84.3118 27.2275 84.0328 26.1015 84.0266 24.9572C84.0465 23.2602 84.6528 21.6233 85.7411 20.3281ZM93.6668 22.0093C93.3076 21.6212 92.8703 21.3149 92.3841 21.1109C91.8979 20.9069 91.3741 20.8099 90.8477 20.8264C90.3285 20.8123 89.8123 20.9106 89.334 21.1147C88.8556 21.3188 88.4263 21.6238 88.0749 22.0093C87.3469 22.8133 86.9547 23.8692 86.9796 24.9572C86.9558 26.0354 87.3485 27.0807 88.0749 27.8726C88.4257 28.2588 88.855 28.5644 89.3334 28.7685C89.8119 28.9726 90.3284 29.0705 90.8477 29.0555C91.3741 29.072 91.8979 28.975 92.3841 28.771C92.8703 28.567 93.3076 28.2607 93.6668 27.8726C94.3852 27.0776 94.7681 26.0319 94.7344 24.9572C94.7707 23.8724 94.388 22.8156 93.6668 22.0093Z" fill="#645F71"/>
<path d="M119.426 31.5004V17.1473H119.376L113.428 31.5004H110.895L104.971 17.1986H104.897V31.5004H101.985V12.318H106.029L112.189 27.1461H112.212L118.253 12.318H122.412V31.4818L119.426 31.5004Z" fill="#645F71"/>
<path d="M128.845 25.8235C128.9 27.7701 130.777 29.2697 132.658 29.2418C134.326 29.2418 135.606 28.5292 136.101 27.0343L138.527 27.7934C138.269 28.5934 137.834 29.3239 137.256 29.9297C136.677 30.5356 135.969 31.001 135.185 31.2909C134.384 31.5919 133.536 31.7495 132.681 31.7566C131.789 31.7754 130.903 31.6133 130.075 31.2799C129.248 30.9465 128.495 30.4487 127.862 29.816C127.229 29.1833 126.728 28.4287 126.391 27.5972C126.053 26.7657 125.885 25.8742 125.896 24.9759C125.887 23.7913 126.175 22.6236 126.733 21.5809C127.274 20.5552 128.087 19.7008 129.081 19.1126C130.087 18.4961 131.244 18.1736 132.422 18.1812C134.404 18.1812 135.943 18.7866 137.066 20.044C138.233 21.3947 138.84 23.1452 138.762 24.934C138.76 25.2328 138.741 25.5313 138.707 25.8281L128.845 25.8235ZM130.153 21.4831C129.514 22.0207 129.102 22.7834 129.002 23.616H135.814C135.801 23.2049 135.704 22.8009 135.528 22.4297C135.352 22.0585 135.102 21.7282 134.793 21.4598C134.126 20.9274 133.295 20.6472 132.445 20.6681C131.615 20.65 130.807 20.94 130.176 21.4831H130.153Z" fill="#645F71"/>
<path d="M148.805 21.3806C148.539 21.325 148.268 21.2984 147.996 21.3015C145.805 21.3015 144.604 22.5915 144.604 24.8501V31.5004H141.729V18.4327H144.572V20.4585C144.917 19.8134 145.429 19.2748 146.054 18.9C146.679 18.5253 147.393 18.3283 148.121 18.3302C148.356 18.3338 148.59 18.351 148.823 18.3815L148.805 21.3806Z" fill="#645F71"/>
<path d="M149.771 24.9293C149.761 23.7396 150.067 22.569 150.658 21.539C151.239 20.5063 152.087 19.6517 153.112 19.0661C154.16 18.464 155.349 18.1553 156.555 18.1719C157.969 18.1261 159.357 18.5608 160.497 19.406C161.512 20.1186 162.243 21.1717 162.558 22.3772L159.947 23.2481C159.76 22.6347 159.417 22.081 158.953 21.6414C158.286 21.0692 157.43 20.7701 156.555 20.8031C156.05 20.7959 155.55 20.892 155.084 21.0858C154.617 21.2795 154.195 21.5668 153.842 21.9302C153.474 22.3281 153.188 22.7955 153 23.3054C152.812 23.8154 152.726 24.3578 152.747 24.9014C152.711 26.0015 153.093 27.0741 153.814 27.9005C154.167 28.2846 154.596 28.5887 155.074 28.7926C155.553 28.9966 156.068 29.0957 156.587 29.0834C158.228 29.0834 159.36 28.2405 160.002 26.5872L162.641 27.4534C162.301 28.5838 161.627 29.5828 160.709 30.3175C159.53 31.2636 158.057 31.7585 156.55 31.7147C155.659 31.7335 154.773 31.5712 153.945 31.2375C153.117 30.9038 152.364 30.4054 151.731 29.7722C151.098 29.139 150.599 28.3838 150.262 27.5518C149.925 26.7197 149.758 25.8278 149.771 24.9293Z" fill="#645F71"/>
<path d="M168.192 25.7443C168.192 27.7142 169.116 29.0042 171.034 29.0042C171.442 29.0245 171.85 28.9551 172.229 28.8007C172.608 28.6463 172.949 28.4106 173.229 28.1101C173.79 27.4443 174.079 26.5887 174.038 25.7164V18.4327H176.931V31.5004H174.116V29.7401C173.749 30.2459 173.288 30.6746 172.758 31.0021C172.334 31.29 171.865 31.5041 171.371 31.6355C170.978 31.7294 170.574 31.7732 170.17 31.7659C168.085 31.7659 166.546 30.7413 165.839 29.1626C165.471 28.3181 165.293 27.4021 165.317 26.4801V18.4327H168.215L168.192 25.7443Z" fill="#645F71"/>
<path d="M187.893 21.3806C187.627 21.3252 187.355 21.2987 187.084 21.3015C184.889 21.3015 183.692 22.5915 183.692 24.8501V31.5004H180.794V18.4327H183.636V20.4585C183.982 19.8134 184.494 19.2748 185.119 18.9C185.744 18.5253 186.458 18.3283 187.186 18.3302C187.422 18.3339 187.658 18.351 187.893 18.3815V21.3806Z" fill="#645F71"/>
<path d="M188.803 18.4327H192.103L196.146 27.0064L199.876 18.4327H203.005L194.099 37.9319H191.021L194.571 30.0148L188.803 18.4327Z" fill="#645F71"/>
</g>
<defs>
<clipPath id="clip0_523_3826">
<rect width="203" height="43" fill="white"/>
</clipPath>
</defs>
</svg>
