<svg width="121" height="120" viewBox="0 0 121 120" fill="none" xmlns="http://www.w3.org/2000/svg">
<g filter="url(#filter0_d_548_2943)">
<rect x="10.6666" y="7" width="100" height="100" rx="24" fill="white"/>
<g clip-path="url(#clip0_548_2943)">
<path d="M96.2479 59.5037C95.9808 59.1597 95.641 58.8855 95.2553 58.7027C94.8697 58.5198 94.4487 58.4334 94.0257 58.4502C90.1894 58.4502 86.3408 58.4502 82.5046 58.4502C81.9708 58.4502 82.0328 58.5283 82.0328 57.982V38.655L80.3568 40.4108V52.7275V58.086C80.3568 58.4762 80.3568 58.4763 79.9719 58.4763H67.9791C67.3625 58.4526 66.7571 58.6535 66.2659 59.0448C65.7747 59.436 65.4282 59.9935 65.2851 60.6222C65.2607 60.8078 65.2607 60.9959 65.2851 61.1815V83.2918C65.2851 83.9421 65.2851 84.5925 65.2851 85.2558C65.3069 85.4847 65.3485 85.711 65.4092 85.9321H45.6073V85.854C45.6464 85.8038 45.6924 85.76 45.7438 85.724C47.2193 84.8401 48.5279 83.6808 49.605 82.3034C50.655 80.9882 51.4708 79.4859 52.0135 77.8683C52.4571 76.5744 52.7245 75.2215 52.808 73.8494C52.9277 72.0966 52.7512 70.3355 52.2866 68.647C51.7837 66.8023 50.9401 65.0789 49.8036 63.5746C49.4808 63.1584 49.1083 62.7943 48.7731 62.4041C47.2226 60.6998 45.289 59.4298 43.1492 58.7104C42.1017 58.3526 41.0187 58.1214 39.9212 58.021C39.5736 58.021 39.5736 58.021 39.5736 57.6308V31.0594C39.5687 30.6696 39.6381 30.2828 39.7778 29.9215C39.9175 29.5602 40.1247 29.2318 40.3872 28.9556C40.6498 28.6793 40.9623 28.4608 41.3065 28.3129C41.6508 28.1649 42.0198 28.0905 42.3919 28.094H74.2238C75.4653 28.094 76.6323 28.094 77.8366 28.094C78.5435 28.147 79.2044 28.4807 79.6843 29.027C80.1643 29.5734 80.427 30.291 80.4188 31.0334V44.0395C80.9899 43.4586 81.5486 42.8733 82.0949 42.2837V31.5406C82.0949 31.3846 82.0949 31.2155 82.0949 31.0464C82.0949 30.8773 82.0949 30.7212 82.0949 30.5652C82.0119 29.4155 81.5236 28.3393 80.725 27.546C79.9265 26.7527 78.8748 26.299 77.7745 26.2732C75.9123 26.2732 74.05 26.2732 72.2001 26.2732H42.2056C41.9989 26.2599 41.7916 26.2599 41.5849 26.2732C40.5331 26.4462 39.5744 27.0058 38.8806 27.8518C38.1868 28.6978 37.8031 29.775 37.7983 30.8903C37.7983 35.5985 37.7983 31.7097 37.7983 36.4049C37.7983 43.4802 37.7983 50.5555 37.7983 57.6308C37.7983 57.8649 37.7238 57.943 37.5004 57.956C36.3063 58.0499 35.1292 58.3079 33.9993 58.7233C31.792 59.5274 29.8079 60.8893 28.2228 62.6883C26.6377 64.4873 25.5004 66.6679 24.9116 69.0372C24.5869 70.3841 24.4406 71.7714 24.477 73.1601C24.508 74.5559 24.7296 75.94 25.135 77.27C25.5837 78.7917 26.2856 80.2183 27.2083 81.484C27.6304 82.0172 28.0153 82.5895 28.4498 83.0837C29.7159 84.4686 31.2305 85.578 32.9068 86.3483C34.5612 87.1349 36.354 87.5513 38.1707 87.5709H59.5493H60.3191H62.5165H94.125C94.478 87.5779 94.8287 87.5104 95.1562 87.3726C95.4838 87.2347 95.7815 87.0292 96.0317 86.7683C96.2819 86.5074 96.4794 86.1964 96.6125 85.8539C96.7457 85.5114 96.8117 85.1443 96.8066 84.7746V72.2627V61.3766C96.8267 60.7042 96.6299 60.0444 96.2479 59.5037ZM26.1779 72.5098C26.2541 69.9473 27.0514 67.4656 28.4697 65.3764C29.8881 63.2872 31.8643 61.6837 34.1498 60.7675C36.4354 59.8512 38.9284 59.663 41.3158 60.2266C43.7031 60.7901 45.8783 62.0802 47.5679 63.9348C49.2575 65.7894 50.3862 68.1258 50.8122 70.6504C51.2382 73.1749 50.9426 75.7751 49.9624 78.1241C48.9822 80.4732 47.361 82.4664 45.3028 83.8533C43.2446 85.2402 40.8411 85.9588 38.3942 85.9191C36.7449 85.8888 35.1178 85.5162 33.6068 84.8229C32.0959 84.1296 30.7311 83.1293 29.5916 81.8798C28.452 80.6304 27.5603 79.1567 26.968 77.5438C26.3756 75.931 26.0944 74.2112 26.1406 72.4838L26.1779 72.5098ZM95.143 84.6835C95.1771 84.8619 95.1685 85.0464 95.1181 85.2205C95.0678 85.3946 94.9771 85.553 94.8543 85.6817C94.7315 85.8104 94.5804 85.9053 94.4142 85.958C94.2479 86.0108 94.0719 86.0197 93.9015 85.9841H68.0784C67.9209 86.0028 67.7613 85.9839 67.6116 85.9291C67.4619 85.8742 67.326 85.7848 67.2138 85.6673C67.1017 85.5498 67.0163 85.4074 66.9639 85.2506C66.9116 85.0938 66.8936 84.9266 66.9114 84.7615C66.9114 84.1893 66.9114 83.63 66.9114 83.0577C66.9114 79.971 66.9114 76.8755 66.9114 73.7714C66.9114 73.5243 67.048 73.5373 67.2218 73.5373H74.6708C74.3884 74.7571 74.4389 76.0354 74.8164 77.2266C75.194 78.4178 75.8834 79.4738 76.8061 80.2744C77.9478 81.2901 79.3915 81.8574 80.8892 81.8787C82.3868 81.9001 83.8448 81.3742 85.0124 80.3915C85.9692 79.5905 86.6879 78.52 87.0838 77.3057C87.4797 76.0915 87.5363 74.7841 87.2471 73.5373H94.696C95.0685 73.5373 95.0686 73.5373 95.0686 73.8884L95.143 84.6835ZM76.2723 75.033C76.2586 73.7879 76.6952 72.5837 77.4944 71.662C78.2935 70.7404 79.396 70.1697 80.5802 70.0646C81.2271 69.9957 81.8806 70.0657 82.5007 70.2704C83.1208 70.475 83.6946 70.8101 84.1868 71.2551C84.6791 71.7001 85.0795 72.2456 85.3636 72.8582C85.6477 73.4709 85.8095 74.1379 85.8391 74.8183C85.8687 75.4987 85.7655 76.1783 85.5358 76.8155C85.306 77.4527 84.9546 78.0341 84.503 78.5242C84.0514 79.0142 83.5092 79.4025 82.9094 79.6655C82.3096 79.9284 81.6649 80.0604 81.0148 80.0533C80.3857 80.0534 79.7629 79.9224 79.1826 79.6678C78.6023 79.4133 78.0761 79.0403 77.6347 78.5707C77.1933 78.101 76.8456 77.5441 76.6117 76.9322C76.3778 76.3204 76.2624 75.666 76.2723 75.007V75.033ZM95.143 71.4043C95.143 71.6384 95.0685 71.7034 94.8574 71.7034H86.8995C86.8235 71.7093 86.7475 71.6915 86.6812 71.6521C86.6149 71.6128 86.5613 71.5537 86.5271 71.4823C85.8266 70.235 84.7402 69.2759 83.4481 68.764C82.4496 68.3296 81.3615 68.1709 80.2877 68.303C79.2139 68.4351 78.1904 68.8535 77.3151 69.5184C76.6009 70.0235 75.9995 70.6846 75.5522 71.4563C75.514 71.5345 75.4549 71.5995 75.3822 71.6433C75.3095 71.6872 75.2262 71.7081 75.1425 71.7034H67.1845C66.961 71.7034 66.899 71.6384 66.899 71.4043C66.899 68.1441 66.899 64.8709 66.899 61.5847C66.8646 61.3384 66.9078 61.087 67.0221 60.8687C67.1363 60.6505 67.3154 60.4772 67.5322 60.3751C67.715 60.306 67.909 60.2751 68.1032 60.2841H81.0148C85.3352 60.2841 89.6432 60.2841 93.9512 60.2841C94.1171 60.2726 94.2833 60.2984 94.4389 60.3596C94.5945 60.4209 94.7359 60.5164 94.8534 60.6395C94.971 60.7627 95.062 60.9107 95.1205 61.0737C95.179 61.2367 95.2037 61.4109 95.1927 61.5847C95.1306 64.7712 95.143 68.0747 95.143 71.3783V71.4043Z" fill="#29009F" stroke="#29009F" stroke-width="0.7" stroke-miterlimit="10"/>
<path d="M73.0195 54.4054C73.0465 54.6263 72.9941 54.8498 72.8725 55.0325C72.7509 55.2152 72.5687 55.3439 72.3615 55.3938C72.2173 55.4137 72.0712 55.4137 71.927 55.3938H47.8917C47.6746 55.4238 47.4537 55.4016 47.2461 55.3288C47.0865 55.2331 46.9641 55.0816 46.9005 54.9008C46.837 54.7201 46.8362 54.5216 46.8984 54.3403C46.9441 54.148 47.0519 53.9781 47.2036 53.8596C47.3552 53.7411 47.5413 53.6811 47.7303 53.69H72.0387C72.5974 53.625 72.9451 53.8851 73.0195 54.4054Z" fill="#29009F"/>
<path d="M71.927 55.758H47.8916C47.6036 55.7617 47.3187 55.6949 47.0597 55.5629C46.8387 55.4275 46.6688 55.2167 46.5784 54.9657C46.488 54.7148 46.4827 54.4389 46.5632 54.1843C46.6321 53.9281 46.7806 53.7033 46.9853 53.5455C47.1899 53.3876 47.4389 53.3058 47.6929 53.3129H72.0014C72.1542 53.2892 72.31 53.2977 72.4595 53.3382C72.609 53.3786 72.7492 53.4501 72.8719 53.5483C72.9946 53.6465 73.0973 53.7695 73.1738 53.91C73.2503 54.0506 73.2992 54.2058 73.3174 54.3664C73.3484 54.6606 73.2741 54.9564 73.109 55.1966C72.9439 55.4369 72.6997 55.6045 72.4236 55.667C72.2633 55.7232 72.0959 55.7539 71.927 55.758ZM47.6929 53.9502C47.5728 53.9403 47.4532 53.9754 47.3554 54.0493C47.2577 54.1231 47.1881 54.2309 47.1591 54.3534C47.1184 54.4655 47.116 54.5889 47.1522 54.7026C47.1884 54.8164 47.261 54.9136 47.3578 54.9777C47.5236 55.0628 47.7071 55.1031 47.8916 55.0947H71.927C72.0466 55.109 72.1673 55.109 72.287 55.0947C72.4184 55.0636 72.5343 54.9826 72.6123 54.8674C72.6902 54.7521 72.7247 54.6107 72.7091 54.4704C72.7091 54.2233 72.5601 53.9632 72.0014 53.9632L47.6929 53.9502Z" fill="#29009F"/>
<path d="M73.0071 40.8529C73.0306 40.9683 73.0318 41.0874 73.0106 41.2033C72.9895 41.3192 72.9463 41.4294 72.8839 41.5276C72.8214 41.6258 72.7408 41.7099 72.6468 41.7749C72.5529 41.84 72.4475 41.8846 72.3368 41.9063C72.2171 41.9197 72.0964 41.9197 71.9767 41.9063H49.3442C48.7731 41.9063 48.1896 41.9063 47.6185 41.9063C47.507 41.9089 47.3963 41.8865 47.2938 41.8406C47.1912 41.7947 47.0992 41.7263 47.024 41.6401C46.9487 41.5538 46.892 41.4518 46.8575 41.3407C46.823 41.2296 46.8115 41.112 46.8239 40.9959C46.8287 40.8798 46.8554 40.7657 46.9023 40.6603C46.9492 40.5549 47.0155 40.4602 47.0973 40.3817C47.1792 40.3032 47.2751 40.2423 47.3795 40.2027C47.4838 40.163 47.5945 40.1453 47.7054 40.1505H72.076C72.2862 40.1291 72.4966 40.1886 72.668 40.3179C72.8393 40.4471 72.9599 40.6373 73.0071 40.8529Z" fill="#29009F"/>
<path d="M71.9766 42.3226H49.3441C48.7606 42.3226 48.1771 42.3226 47.606 42.3226C47.4488 42.3267 47.2928 42.2944 47.1489 42.2281C47.0051 42.1617 46.877 42.0628 46.7738 41.9386C46.6706 41.8143 46.5949 41.6678 46.552 41.5093C46.5092 41.3509 46.5003 41.1845 46.5259 41.022C46.5267 40.8578 46.5604 40.6956 46.6249 40.5459C46.6894 40.3963 46.7833 40.2625 46.9004 40.1533C47.0175 40.0442 47.1552 39.962 47.3046 39.9123C47.4539 39.8625 47.6116 39.8462 47.7674 39.8644H72.0759C72.3615 39.8364 72.6469 39.9207 72.8764 40.1011C73.1059 40.2814 73.2631 40.5448 73.3174 40.8399C73.3499 40.9963 73.3521 41.1581 73.3238 41.3154C73.2956 41.4728 73.2376 41.6226 73.1531 41.756C73.0685 41.8894 72.9593 42.0037 72.8318 42.0921C72.7044 42.1805 72.5614 42.2412 72.4111 42.2706C72.268 42.3013 72.1226 42.3187 71.9766 42.3226ZM48.7482 40.5277H47.7053C47.6355 40.5206 47.5649 40.5286 47.4982 40.5513C47.4314 40.5741 47.3699 40.611 47.3174 40.6599C47.265 40.7087 47.2227 40.7684 47.1933 40.8352C47.1639 40.902 47.148 40.9745 47.1466 41.048C47.1466 41.4208 47.3081 41.6159 47.6308 41.6333C48.2019 41.6333 48.773 41.6333 49.3441 41.6333H72.2745C72.3446 41.6211 72.4117 41.5941 72.4715 41.5539C72.5312 41.5136 72.5825 41.461 72.6222 41.3992C72.6618 41.3342 72.6887 41.2617 72.7015 41.1858C72.7143 41.1099 72.7126 41.0322 72.6967 40.957C72.6967 40.7619 72.5477 40.5018 72.0511 40.5018H48.7482V40.5277Z" fill="#29009F"/>
<path d="M73.0071 34.1158C73.051 34.3486 73.0052 34.5901 72.8795 34.7875C72.7539 34.9849 72.5587 35.1222 72.3368 35.1693C72.2171 35.1826 72.0964 35.1826 71.9767 35.1693H49.3442C48.7731 35.1693 48.1896 35.1693 47.6185 35.1693C47.507 35.1719 47.3963 35.1495 47.2938 35.1035C47.1912 35.0576 47.0992 34.9892 47.024 34.903C46.9487 34.8168 46.892 34.7147 46.8575 34.6036C46.823 34.4925 46.8115 34.375 46.8239 34.2589C46.8287 34.1427 46.8554 34.0287 46.9023 33.9233C46.9492 33.8179 47.0155 33.7232 47.0973 33.6447C47.1792 33.5661 47.2751 33.5053 47.3795 33.4656C47.4838 33.4259 47.5945 33.4082 47.7054 33.4135H72.076C72.2857 33.3948 72.4949 33.4554 72.6656 33.5842C72.8364 33.713 72.9575 33.9016 73.0071 34.1158Z" fill="#29009F"/>
<path d="M71.9766 35.5203H49.3441C48.7606 35.5203 48.1771 35.5203 47.606 35.5203C47.4488 35.5245 47.2928 35.4922 47.1489 35.4258C47.0051 35.3594 46.877 35.2606 46.7738 35.1363C46.6706 35.0121 46.5949 34.8655 46.552 34.7071C46.5092 34.5486 46.5003 34.3822 46.5259 34.2197C46.5286 34.0562 46.5636 33.8949 46.6287 33.7462C46.6939 33.5975 46.7877 33.4646 46.9044 33.3558C47.021 33.247 47.158 33.1648 47.3065 33.1143C47.4551 33.0637 47.612 33.046 47.7674 33.0622H72.0759C72.3633 33.0346 72.6502 33.1207 72.88 33.3037C73.1098 33.4867 73.2659 33.7532 73.3174 34.0507C73.3499 34.2071 73.3521 34.3688 73.3238 34.5262C73.2956 34.6836 73.2376 34.8334 73.1531 34.9668C73.0685 35.1002 72.9593 35.2145 72.8318 35.3028C72.7044 35.3912 72.5614 35.4519 72.4111 35.4813C72.2686 35.5143 72.1224 35.5274 71.9766 35.5203ZM48.7482 33.7125H47.7053C47.6348 33.7072 47.564 33.717 47.4973 33.7412C47.4305 33.7655 47.3691 33.8037 47.3168 33.8536C47.2646 33.9035 47.2225 33.9639 47.1932 34.0314C47.164 34.0988 47.1481 34.1717 47.1466 34.2458C47.1335 34.319 47.1363 34.3943 47.1548 34.4662C47.1734 34.5381 47.2072 34.6047 47.2538 34.661C47.3003 34.7172 47.3585 34.7618 47.4237 34.7912C47.489 34.8207 47.5598 34.8343 47.6308 34.831H49.3441H71.9766C72.0755 34.8445 72.1756 34.8445 72.2745 34.831C72.3454 34.8213 72.4133 34.7953 72.4734 34.7548C72.5335 34.7143 72.5843 34.6604 72.6222 34.5969C72.6614 34.5343 72.6882 34.464 72.701 34.3903C72.7138 34.3165 72.7123 34.2409 72.6967 34.1677C72.6967 33.9596 72.5477 33.6995 72.0511 33.6995H48.7482V33.7125Z" fill="#29009F"/>
<path d="M73.007 47.6031C73.0305 47.7185 73.0317 47.8377 73.0105 47.9535C72.9894 48.0694 72.9462 48.1797 72.8838 48.2779C72.8213 48.376 72.7407 48.4601 72.6467 48.5252C72.5528 48.5902 72.4474 48.6349 72.3367 48.6566C72.217 48.6695 72.0963 48.6695 71.9766 48.6566H49.3317H47.6184C47.5058 48.6594 47.3938 48.6367 47.2903 48.59C47.1868 48.5433 47.0942 48.4738 47.0187 48.3861C46.9433 48.2984 46.8868 48.1946 46.8532 48.0819C46.8196 47.9692 46.8095 47.8503 46.8239 47.7332C46.8286 47.6175 46.8553 47.5041 46.9024 47.3994C46.9494 47.2947 47.0159 47.2008 47.098 47.1233C47.1801 47.0458 47.276 46.9862 47.3803 46.948C47.4845 46.9098 47.5951 46.8937 47.7053 46.9008H72.0759C72.2861 46.8793 72.4965 46.9389 72.6679 47.0681C72.8392 47.1973 72.9598 47.3875 73.007 47.6031Z" fill="#29009F"/>
<path d="M71.9766 49.0077H49.3317C48.7606 49.0077 48.1771 49.0077 47.606 49.0077C47.4491 49.0092 47.2937 48.9753 47.1505 48.9083C47.0072 48.8413 46.8793 48.7427 46.7757 48.6193C46.672 48.4959 46.5949 48.3505 46.5497 48.1931C46.5045 48.0357 46.4921 47.8699 46.5135 47.7071C46.5162 47.5435 46.5512 47.3823 46.6163 47.2336C46.6815 47.0849 46.7754 46.9519 46.8921 46.8432C47.0087 46.7344 47.1456 46.6521 47.2941 46.6016C47.4427 46.5511 47.5996 46.5333 47.755 46.5495H72.0759C72.3616 46.5215 72.6469 46.6058 72.8764 46.7862C73.1059 46.9665 73.2632 47.2299 73.3174 47.525C73.35 47.6822 73.3524 47.8447 73.3243 48.0029C73.2962 48.1611 73.2382 48.3118 73.1538 48.4463C73.0694 48.5807 72.9602 48.6962 72.8327 48.7859C72.7052 48.8756 72.5619 48.9377 72.4112 48.9686C72.2677 48.995 72.1223 49.0081 71.9766 49.0077ZM48.7482 47.2128H47.7054C47.6349 47.2057 47.5637 47.2137 47.4963 47.2363C47.4288 47.2589 47.3665 47.2957 47.3131 47.3443C47.2596 47.393 47.2162 47.4526 47.1855 47.5194C47.1547 47.5863 47.1373 47.659 47.1342 47.7331C47.1208 47.8074 47.1238 47.884 47.143 47.9569C47.1623 48.0298 47.1972 48.0971 47.2452 48.1537C47.2932 48.2102 47.3529 48.2545 47.4198 48.283C47.4866 48.3116 47.5588 48.3236 47.6309 48.3183H49.3317H72.2745C72.3454 48.3045 72.4129 48.2758 72.4728 48.2339C72.5328 48.192 72.584 48.1378 72.6235 48.0746C72.6629 48.0114 72.6898 47.9405 72.7024 47.8662C72.715 47.7918 72.713 47.7156 72.6967 47.642C72.6967 47.525 72.6098 47.1868 72.0511 47.1868H48.7482V47.2128Z" fill="#29009F"/>
<path d="M38.6549 77.582C38.2339 77.5835 37.8174 77.6736 37.4303 77.8471C37.0432 78.0205 36.6933 78.2736 36.4015 78.5915C36.1096 78.9094 35.8818 79.2855 35.7314 79.6975C35.5811 80.1094 35.5113 80.5489 35.5263 80.9897C35.553 81.6279 35.758 82.2439 36.1157 82.7614C36.4734 83.2788 36.9681 83.6749 37.5386 83.9006C38.1092 84.1263 38.7304 84.1716 39.3253 84.031C39.9201 83.8904 40.4626 83.57 40.8853 83.1096C41.3081 82.6491 41.5926 82.0688 41.7036 81.4406C41.8146 80.8124 41.7472 80.1639 41.5097 79.5754C41.2722 78.987 40.8752 78.4844 40.3677 78.1301C39.8602 77.7758 39.2647 77.5852 38.6549 77.582ZM38.6549 82.3293C38.2843 82.3167 37.9317 82.1586 37.6672 81.8863C37.4027 81.6141 37.2456 81.2476 37.2271 80.8596C37.2287 80.6649 37.2669 80.4724 37.3396 80.2932C37.4122 80.1139 37.5178 79.9514 37.6504 79.815C37.783 79.6785 37.9399 79.5707 38.1123 79.4978C38.2846 79.4248 38.469 79.3882 38.6549 79.3899C39.0269 79.3899 39.3838 79.5447 39.6468 79.8203C39.9099 80.096 40.0578 80.4698 40.0578 80.8596C40.0578 81.2494 39.9099 81.6232 39.6468 81.8988C39.3838 82.1744 39.0269 82.3293 38.6549 82.3293Z" fill="#29009F"/>
<path d="M38.6673 61.5585C37.8905 61.619 37.1635 61.9821 36.6295 62.5762C36.0955 63.1704 35.7933 63.9524 35.7824 64.7684C35.7715 65.5843 36.0527 66.375 36.5706 66.9845C37.0885 67.5941 37.8055 67.9783 38.5804 68.0616C39.0105 68.1078 39.445 68.0597 39.8564 67.9204C40.2679 67.7812 40.6471 67.5537 40.97 67.2526C41.293 66.9515 41.5527 66.5832 41.7324 66.1712C41.9122 65.7593 42.0081 65.3127 42.0141 64.8598C42.0202 64.4069 41.9362 63.9576 41.7675 63.5406C41.5988 63.1235 41.3492 62.7478 41.0344 62.4373C40.7197 62.1268 40.3466 61.8883 39.9391 61.737C39.5316 61.5857 39.0985 61.525 38.6673 61.5585ZM38.6673 66.2798C38.4798 66.2832 38.2935 66.2479 38.119 66.1759C37.9445 66.1039 37.7853 65.9966 37.6504 65.8601C37.5155 65.7237 37.4076 65.5606 37.3328 65.3805C37.2581 65.2003 37.2179 65.0065 37.2147 64.8101C37.23 64.4254 37.3827 64.0608 37.6425 63.7886C37.9024 63.5163 38.2504 63.3564 38.6176 63.3404C38.9887 63.3438 39.3436 63.4997 39.606 63.7746C39.8684 64.0495 40.0173 64.4213 40.0205 64.8101C40.0272 65.1908 39.89 65.5588 39.6389 65.8341C39.3878 66.1093 39.043 66.2695 38.6797 66.2798H38.6673Z" fill="#29009F"/>
<path d="M30.8832 69.6354C30.0951 69.6707 29.3484 70.0154 28.7918 70.601C28.2351 71.1865 27.9092 71.9701 27.8788 72.7959C27.8671 73.2327 27.9395 73.6675 28.0918 74.0743C28.2441 74.4811 28.4731 74.8515 28.7651 75.1635C29.0572 75.4755 29.4063 75.7227 29.7915 75.8902C30.1767 76.0577 30.5902 76.1421 31.0073 76.1384C31.4142 76.1436 31.818 76.0639 32.1952 75.904C32.5723 75.7441 32.9154 75.5071 33.2042 75.2068C33.4931 74.9066 33.722 74.5492 33.8777 74.1554C34.0334 73.7615 34.1127 73.3392 34.111 72.9129C34.113 72.4731 34.0301 72.0374 33.8673 71.632C33.7045 71.2266 33.4652 70.8598 33.1637 70.5537C32.8622 70.2476 32.5048 70.0084 32.1129 69.8506C31.721 69.6928 31.3028 69.6196 30.8832 69.6354ZM30.9825 74.3696C30.6165 74.3569 30.2685 74.1997 30.0084 73.9295C29.7482 73.6594 29.5951 73.2963 29.5796 72.9129C29.5828 72.523 29.7312 72.1497 29.9933 71.8728C30.2553 71.5958 30.6103 71.437 30.9825 71.4302C31.3546 71.4302 31.7114 71.5851 31.9745 71.8607C32.2376 72.1363 32.3854 72.5102 32.3854 72.8999C32.3854 73.2897 32.2376 73.6635 31.9745 73.9391C31.7114 74.2148 31.3546 74.3696 30.9825 74.3696Z" fill="#29009F"/>
<path d="M46.2031 69.6355C45.3953 69.6492 44.6256 69.9977 44.0625 70.6046C43.4994 71.2116 43.1888 72.0276 43.1987 72.874C43.1966 73.522 43.3793 74.1559 43.7235 74.6943C44.0676 75.2328 44.5574 75.6512 45.1301 75.896C45.7029 76.1407 46.3324 76.2006 46.9378 76.068C47.5433 75.9353 48.0971 75.6162 48.5282 75.1515C48.9593 74.6868 49.248 74.0977 49.3573 73.4599C49.4666 72.8221 49.3915 72.1647 49.1417 71.5719C48.8918 70.9791 48.4786 70.4781 47.955 70.133C47.4315 69.788 46.8214 69.6147 46.2031 69.6355ZM46.3025 74.3567C46.1063 74.376 45.9084 74.3522 45.7216 74.2868C45.5347 74.2214 45.363 74.1158 45.2173 73.9768C45.0716 73.8379 44.9552 73.6686 44.8755 73.4798C44.7959 73.291 44.7548 73.0869 44.7548 72.8805C44.7548 72.6741 44.7959 72.4699 44.8755 72.2811C44.9552 72.0923 45.0716 71.9231 45.2173 71.7841C45.363 71.6452 45.5347 71.5396 45.7216 71.4742C45.9084 71.4088 46.1063 71.385 46.3025 71.4043C46.6705 71.4206 47.0188 71.5829 47.277 71.8582C47.5352 72.1334 47.6838 72.5012 47.6929 72.887C47.6715 73.2623 47.517 73.6157 47.2598 73.8779C47.0026 74.1402 46.6612 74.2923 46.3025 74.3046V74.3567Z" fill="#29009F"/>
<path d="M38.7542 69.6354C38.3357 69.6101 37.9167 69.676 37.5238 69.8291C37.1308 69.9821 36.7725 70.2189 36.4714 70.5245C36.1704 70.8302 35.9331 71.1979 35.7747 71.6046C35.6163 72.0112 35.5402 72.4479 35.5512 72.8869C35.5445 73.7335 35.8557 74.549 36.4178 75.1573C36.9799 75.7656 37.7477 76.118 38.5556 76.1385C39.3788 76.1678 40.1793 75.8533 40.7812 75.2643C41.3831 74.6752 41.7369 73.8598 41.7649 72.9975C41.7929 72.1351 41.4927 71.2964 40.9304 70.6659C40.3681 70.0354 39.5898 69.6647 38.7666 69.6354H38.7542ZM38.6301 74.3566C38.258 74.3566 37.9012 74.2018 37.6381 73.9262C37.375 73.6506 37.2272 73.2767 37.2272 72.8869C37.2272 72.4972 37.375 72.1233 37.6381 71.8477C37.9012 71.5721 38.258 71.4172 38.6301 71.4172C38.8163 71.4137 39.0013 71.4497 39.1739 71.5231C39.3464 71.5965 39.5031 71.7058 39.6342 71.8444C39.7653 71.9829 39.8682 72.1479 39.9368 72.3294C40.0053 72.5108 40.0381 72.7049 40.033 72.9C40.017 73.2784 39.8622 73.6357 39.6008 73.8974C39.3394 74.1591 38.9917 74.305 38.6301 74.3046V74.3566Z" fill="#29009F"/>
<path d="M92.3497 62.391C91.493 62.391 90.6115 62.391 89.7425 62.391C89.4445 62.391 89.1466 62.391 88.8611 62.391C88.0665 62.3 87.6196 62.7162 87.6196 63.4706C87.6196 63.8347 87.6196 64.2119 87.6196 64.5891C87.6196 65.4475 87.6196 66.2929 87.6196 67.1903C87.6049 67.3131 87.6161 67.4378 87.6524 67.5555C87.6887 67.6733 87.7492 67.7812 87.8298 67.8718C87.9103 67.9623 88.0088 68.0333 88.1183 68.0796C88.2279 68.1259 88.3458 68.1464 88.4638 68.1397C89.7053 68.1397 90.9468 68.1397 92.1883 68.1397C92.3045 68.144 92.4202 68.1222 92.5278 68.0759C92.6354 68.0296 92.7323 67.9598 92.8122 67.8712C92.8921 67.7827 92.9531 67.6773 92.991 67.5621C93.029 67.447 93.0431 67.3246 93.0325 67.2033C93.0325 66.566 93.0325 65.9027 93.0325 65.2914C93.0325 64.6801 93.0325 63.9908 93.0325 63.3015C93.0537 63.0866 92.9943 62.8714 92.8669 62.7015C92.7395 62.5316 92.554 62.4203 92.3497 62.391ZM91.3937 66.0588C91.3937 66.2409 91.3937 66.3059 91.1454 66.2929H89.5687C89.4197 66.2929 89.3576 66.2929 89.3576 66.0848C89.3576 65.5255 89.3576 64.9532 89.3576 64.381C89.3576 64.2119 89.4197 64.1599 89.5687 64.1599H91.1702C91.344 64.1599 91.3937 64.1599 91.3937 64.407V66.0588Z" fill="#29009F"/>
<path d="M82.3434 31.6057H81.7227V30.6172H82.3434C82.3434 30.7863 82.3434 30.9554 82.3434 31.1244C82.3434 31.2805 82.3434 31.4366 82.3434 31.5926V31.6057Z" fill="#29009F"/>
</g>
</g>
<defs>
<filter id="filter0_d_548_2943" x="0.666626" y="0" width="120" height="120" filterUnits="userSpaceOnUse" color-interpolation-filters="sRGB">
<feFlood flood-opacity="0" result="BackgroundImageFix"/>
<feColorMatrix in="SourceAlpha" type="matrix" values="0 0 0 0 0 0 0 0 0 0 0 0 0 0 0 0 0 0 127 0" result="hardAlpha"/>
<feOffset dy="3"/>
<feGaussianBlur stdDeviation="5"/>
<feComposite in2="hardAlpha" operator="out"/>
<feColorMatrix type="matrix" values="0 0 0 0 0 0 0 0 0 0 0 0 0 0 0 0 0 0 0.05 0"/>
<feBlend mode="normal" in2="BackgroundImageFix" result="effect1_dropShadow_548_2943"/>
<feBlend mode="normal" in="SourceGraphic" in2="effect1_dropShadow_548_2943" result="shape"/>
</filter>
<clipPath id="clip0_548_2943">
<rect width="73" height="62" fill="white" transform="translate(24.1666 26)"/>
</clipPath>
</defs>
</svg>
