<svg width="107" height="43" viewBox="0 0 107 43" fill="none" xmlns="http://www.w3.org/2000/svg">
<g clip-path="url(#clip0_523_3825)">
<path d="M25.5355 16.7991C25.8987 16.4803 26.2169 16.1778 26.5576 15.9052C27.8837 14.8756 29.4874 14.2362 31.178 14.0629C32.8361 13.8426 34.5249 14.0378 36.0828 14.6298C38.0459 15.3865 39.685 16.7665 40.7313 18.5433C41.7119 20.1801 42.29 22.0134 42.4207 23.9012C42.6033 25.8703 42.335 27.8542 41.6352 29.7115C40.7285 32.1016 39.1743 33.982 36.8205 35.1621C35.5855 35.7799 34.2206 36.1155 32.8307 36.1432C31.3058 36.2291 29.7839 35.9314 28.4131 35.2793C27.7579 34.9249 27.1319 34.5222 26.5407 34.0747C26.3113 33.8834 26.1019 33.6707 25.9156 33.4397L25.8171 33.4751C25.8171 33.595 25.7974 33.715 25.7974 33.8321C25.7974 36.7173 25.7974 39.6034 25.7974 42.4904C25.7974 43 25.7974 43 25.2737 43H20.2872C19.8395 43 19.8198 42.9836 19.8198 42.5667V14.8724C19.8198 14.4636 19.8452 14.439 20.2562 14.439C21.864 14.439 23.4745 14.439 25.085 14.439C25.4144 14.439 25.5158 14.5562 25.5074 14.8614C25.4905 15.4065 25.5074 15.927 25.5074 16.4612C25.5158 16.5593 25.5271 16.6765 25.5355 16.7991ZM25.7044 25.1112C25.8199 25.7489 25.8846 26.403 26.0536 27.0189C26.6758 29.3 28.7566 31.0714 31.5384 30.7771C32.2932 30.7223 33.025 30.5005 33.6772 30.1286C34.3294 29.7567 34.8846 29.2448 35.3 28.6323C36.3897 27.0516 36.5952 25.302 36.1785 23.4706C35.8983 22.1308 35.0905 20.9492 33.926 20.1757C32.8796 19.4892 31.6092 19.1983 30.3558 19.3582C29.178 19.4713 28.0888 20.014 27.3093 20.8761C26.2 22.0834 25.7777 23.5197 25.7044 25.1249V25.1112Z" fill="#908B9E"/>
<path d="M88.142 23.292L89.3181 21.9135C91.1977 19.708 93.1107 17.5265 94.9346 15.2781C95.1497 14.9813 95.4442 14.746 95.7868 14.5972C96.1294 14.4483 96.5075 14.3913 96.881 14.4323C98.691 14.4912 100.496 14.451 102.317 14.451H102.795C102.71 14.5827 102.617 14.7096 102.517 14.8311C100.715 16.7636 98.9135 18.6953 97.1117 20.6261C96.2776 21.5334 95.4435 22.4489 94.5899 23.3562C94.563 23.3778 94.5414 23.4049 94.5266 23.4354C94.5117 23.4659 94.504 23.4992 94.504 23.5329C94.504 23.5666 94.5117 23.5999 94.5266 23.6304C94.5414 23.6609 94.563 23.688 94.5899 23.7096C96.1636 25.701 98.1321 27.1571 100.648 27.853C101.315 28.0129 101.994 28.1221 102.678 28.1796C102.787 28.1774 102.894 28.2073 102.985 28.2651C103.076 28.323 103.146 28.4061 103.187 28.5035C104.227 30.7483 105.271 32.9922 106.321 35.2352C106.468 35.5511 106.429 35.6046 106.043 35.6474C102.119 36.0971 98.6743 34.9462 95.5575 32.7272C92.5907 30.6153 90.3275 27.9092 88.4479 24.8712C88.3486 24.6957 88.223 24.5352 88.0753 24.3948V34.8337C88.0753 35.3691 88.0753 35.3825 87.4942 35.3825H82.5783C82.1446 35.3825 82.1251 35.3637 82.1251 34.9515C82.1251 25.4191 82.1251 15.8884 82.1251 6.35948C82.1251 5.92854 82.1418 5.91248 82.595 5.91248H87.5998C88.0503 5.91248 88.0642 5.92854 88.0642 6.37019V23.2626L88.142 23.292Z" fill="#908B9E"/>
<path d="M60.1047 16.8265V15.2209C60.1047 15.0878 60.1047 14.9436 60.1047 14.8216C60.0793 14.5443 60.2091 14.4334 60.4996 14.4362C61.9101 14.4362 63.3206 14.4362 64.7311 14.4362C65.0132 14.4362 65.3178 14.4362 65.6112 14.4362C65.8341 14.4362 65.9525 14.5166 65.9413 14.7467C65.9413 14.8355 65.9413 14.9242 65.9413 15.024V35.5717C65.9413 36.1263 65.9413 36.1263 65.363 36.1263H60.7253C60.1047 36.1263 60.1047 36.1263 60.1047 35.4996V33.7305C60.0439 33.7532 59.9862 33.783 59.9326 33.8192C58.8048 35.1102 57.2603 35.9814 55.5573 36.2872C52.7759 36.8778 50.1495 36.5007 47.7828 34.873C46.2967 33.8289 45.1338 32.4007 44.423 30.7468C43.5127 28.6823 43.1395 26.4276 43.3369 24.1859C43.5203 21.632 44.3073 19.2805 46.0027 17.2812C47.3878 15.5986 49.3554 14.477 51.529 14.1311C54.0396 13.7152 56.4036 14.1145 58.5363 15.5176C59.0831 15.9253 59.6067 16.3622 60.1047 16.8265ZM59.9947 25.2507C59.9636 24.8764 59.9467 24.4993 59.8931 24.1277C59.5067 21.4823 57.422 19.2334 54.4318 19.4358C53.7134 19.4645 53.0098 19.6454 52.369 19.966C51.7283 20.2867 51.1656 20.7396 50.7194 21.2937C49.4923 22.8022 49.1594 24.5492 49.4584 26.432C49.6211 27.6862 50.2189 28.8468 51.151 29.718C51.7026 30.2376 52.366 30.6286 53.092 30.8624C53.8181 31.0961 54.5883 31.1665 55.3457 31.0684C55.9991 31.0092 56.6329 30.8181 57.2076 30.507C57.7824 30.1959 58.2856 29.7715 58.6858 29.2605C59.6308 28.0847 59.9608 26.7204 59.9947 25.2507Z" fill="#908B9E"/>
<path d="M2.40582 29.0883C2.57855 29.2076 2.72429 29.2991 2.86194 29.4017C4.45614 30.5853 6.35408 31.2605 8.31917 31.3431C9.33075 31.4325 10.3485 31.2727 11.288 30.8772C11.5902 30.7319 11.8645 30.5317 12.0977 30.2864C12.2823 30.0944 12.3858 29.8353 12.3858 29.5653C12.3858 29.2954 12.2823 29.0363 12.0977 28.8442C11.7626 28.4802 11.3325 28.2231 10.8589 28.1037C9.83327 27.7931 8.80227 27.5102 7.77668 27.2079C6.27878 26.7669 4.80786 26.2511 3.51238 25.3303C2.79458 24.8515 2.20698 24.193 1.80475 23.4168C1.40252 22.6406 1.19887 21.7721 1.2129 20.8928C1.18321 18.3162 2.37613 16.5079 4.47859 15.271C6.35435 14.1616 8.39204 13.8593 10.535 14.0118C12.1531 14.0979 13.745 14.4674 15.2419 15.1046C15.8546 15.3819 16.4402 15.7092 17.0421 16.0087C17.081 16.0204 17.1166 16.0415 17.146 16.0703C17.1753 16.099 17.1975 16.1346 17.2107 16.1739C17.2239 16.2133 17.2278 16.2554 17.2219 16.2966C17.2161 16.3378 17.2007 16.377 17.1771 16.4109C16.6103 17.6894 16.0462 18.9735 15.4956 20.2604C15.3769 20.5378 15.2419 20.51 15.0206 20.3991C13.2499 19.4811 11.2901 19.015 9.30698 19.0401C8.61875 19.0595 7.95751 19.1926 7.41773 19.6946C6.79697 20.2798 6.85095 21.0814 7.60125 21.478C8.20103 21.7963 8.83512 22.0411 9.4905 22.2074C11.0937 22.6178 12.713 22.9645 14.219 23.6884C15.725 24.4123 16.9746 25.3275 17.6737 26.8945C18.7289 29.2575 18.2134 32.4692 16.0246 34.2858C14.5946 35.4298 12.8878 36.1509 11.0883 36.3714C8.47185 36.7875 5.7947 36.4733 3.33695 35.4617C2.34038 35.0581 1.41148 34.4967 0.584041 33.7976C0.419406 33.659 0.346538 33.5203 0.443699 33.3178C1.05366 31.9847 1.66092 30.6498 2.26548 29.313C2.30614 29.2342 2.35308 29.1591 2.40582 29.0883Z" fill="#908B9E"/>
<path d="M73.1732 18.0489C73.5373 17.4832 73.9307 16.9374 74.3517 16.414C75.522 15.1347 77.1024 14.3196 78.8104 14.1143C79.2533 14.0462 79.7042 14.0216 80.1525 13.978C80.3914 13.9562 80.5069 14.0489 80.5069 14.3105C80.5069 16.1833 80.5069 18.0562 80.5069 19.929C80.5069 20.2206 80.3539 20.2396 80.1203 20.2696C79.2366 20.3406 78.358 20.4671 77.4897 20.6484C75.4066 21.1715 74.102 22.5557 73.584 24.6511C73.3754 25.4833 73.2636 26.3374 73.2511 27.196C73.2081 29.8827 73.235 32.5721 73.235 35.2614C73.235 35.7356 73.235 35.7437 72.7706 35.7437H67.9817C67.5844 35.7437 67.5603 35.7192 67.5603 35.3159V14.88C67.5603 14.4576 67.5791 14.4413 68.0005 14.4413H72.733C73.1518 14.4413 73.1706 14.4603 73.1706 14.8827C73.1732 15.929 73.1732 16.9835 73.1732 18.0489Z" fill="#908B9E"/>
<path d="M91.8695 30.9062C92.4399 31.415 92.997 31.9421 93.5859 32.4272C95.8567 34.2996 98.3389 35.8101 101.22 36.5628C102.188 36.8245 103.19 36.9438 104.193 36.9168C104.307 36.897 104.424 36.897 104.539 36.9168C104.634 36.9509 104.703 37.0584 104.782 37.1318C104.7 37.2053 104.618 37.339 104.534 37.3416C104.049 37.3648 103.563 37.3604 103.079 37.3285C99.8492 37.0663 97.1321 35.6082 94.6791 33.6231C93.71 32.8363 92.8545 31.9185 91.9487 31.0583C91.9072 31.0141 91.8693 30.9668 91.8352 30.9167L91.8695 30.9062Z" fill="#908B9E"/>
<path d="M101.215 38.1625C100.313 37.9182 99.416 37.7179 98.5633 37.4173C96.8734 36.7943 95.3386 35.881 94.0469 34.7298C93.6142 34.3569 93.1897 33.9765 92.7734 33.5889C92.7152 33.5074 92.6716 33.4184 92.6442 33.325C92.761 33.3389 92.8738 33.3721 92.977 33.4227C93.8874 34.1239 94.7456 34.8887 95.7028 35.5337C97.3052 36.6659 99.2112 37.4093 101.234 37.691C101.347 37.7056 101.443 37.84 101.545 37.9206L101.215 38.1625Z" fill="#908B9E"/>
<path d="M90.2173 25.3297C90.6708 25.1412 90.6845 25.1162 90.635 24.4979H92.57C92.8449 24.5167 93.1208 24.5102 93.3945 24.4785C93.9443 24.3759 94.4115 24.6504 94.8925 24.8362C94.9942 24.875 95.0684 24.997 95.1481 25.0857C96.745 26.9378 98.6415 28.3436 100.986 29.0866C101.203 29.156 101.428 29.2142 101.651 29.2696C102.028 29.3584 102.448 29.3528 102.624 29.8242C102.642 29.8584 102.667 29.8884 102.697 29.9123C102.728 29.9362 102.763 29.9534 102.8 29.9628C103.201 30.0515 103.295 30.3731 103.405 30.7059C103.817 31.9314 104.243 33.1541 104.663 34.3796C104.702 34.4905 104.735 34.607 104.782 34.7622C104.29 34.862 103.957 35.0922 104.103 35.7437C103.597 35.6994 103.135 35.6772 102.679 35.6217C99.7052 35.2502 97.2397 33.85 95.0739 31.826C93.1848 30.0144 91.5805 27.9229 90.3162 25.6236C90.2825 25.5658 90.2531 25.5056 90.2282 25.4434C90.2191 25.4062 90.2154 25.368 90.2173 25.3297ZM92.5975 24.753C92.2127 24.753 91.8279 24.753 91.4431 24.753C91.149 24.753 90.8934 24.753 90.8467 25.144C90.8225 25.2293 90.7689 25.303 90.6955 25.3519C90.5388 25.4656 90.5581 25.5793 90.646 25.7207C90.8329 26.0201 91.0088 26.3279 91.1957 26.6273C92.6576 29.0852 94.5709 31.2392 96.833 32.9739C98.7641 34.4277 101.067 35.2935 103.471 35.4692C103.514 35.4811 103.56 35.4835 103.604 35.4764C103.648 35.4692 103.691 35.4527 103.729 35.4278C103.766 35.4029 103.798 35.3703 103.822 35.332C103.847 35.2938 103.863 35.2508 103.869 35.2058C103.947 35.0026 104.081 34.8257 104.254 34.6957C104.419 34.5764 104.463 34.4822 104.397 34.2936C103.96 33.0404 103.534 31.7816 103.094 30.5312C103.033 30.4211 102.949 30.3263 102.847 30.2539C102.668 30.0959 102.484 29.9434 102.297 29.7937C102.206 29.7061 102.099 29.6382 101.981 29.594C99.2681 29.0145 97.0583 27.5783 95.2278 25.521C95.0132 25.2507 94.736 25.0378 94.4206 24.901C94.1053 24.7642 93.7614 24.7076 93.4193 24.7364C93.1472 24.753 92.8723 24.753 92.5975 24.753Z" fill="#645F71"/>
<path d="M96.454 27.6814C96.9874 27.7234 97.498 27.8939 97.9312 28.1746C98.3643 28.4553 98.7037 28.8356 98.9131 29.2749C99.0735 29.556 99.1417 29.8716 99.1099 30.1857C99.0782 30.4998 98.9477 30.7995 98.7336 31.0505C98.5194 31.3015 98.2302 31.4936 97.8991 31.6048C97.568 31.716 97.2085 31.7417 96.8618 31.6791C95.5099 31.5142 94.5563 30.7845 94.3117 29.7529C94.0419 28.6123 94.9013 27.6702 96.454 27.6814ZM96.1811 27.9609C95.9493 27.9528 95.7184 27.9916 95.5058 28.0744C95.2932 28.1572 95.1043 28.2818 94.9535 28.4388C94.8026 28.5959 94.6935 28.7814 94.6345 28.9814C94.5755 29.1814 94.5681 29.3907 94.6128 29.5936C94.7822 30.5804 95.6981 31.2709 96.9904 31.4135C97.27 31.4531 97.5565 31.4246 97.8194 31.3308C98.0823 31.237 98.3117 31.0815 98.4835 30.8809C98.6552 30.6802 98.7628 30.4418 98.7948 30.1911C98.8269 29.9403 98.7821 29.6865 98.6653 29.4566C98.4542 29.0216 98.1084 28.6491 97.6685 28.3828C97.2286 28.1164 96.7127 27.9672 96.1811 27.9525V27.9609Z" fill="#645F71"/>
<path d="M97.4993 29.1318C97.4686 29.1767 97.431 29.2125 97.3891 29.2371C97.3471 29.2616 97.3017 29.2743 97.2558 29.2743C97.2098 29.2743 97.1644 29.2616 97.1225 29.2371C97.0805 29.2125 97.043 29.1767 97.0122 29.1318C96.9808 29.0906 96.9449 29.0346 96.9067 29.0287C96.8051 29.0213 96.7032 29.0213 96.6015 29.0287C96.6143 29.1647 96.6439 29.2972 96.689 29.4208C96.7694 29.5295 96.8573 29.6282 96.9516 29.7156C97.0518 29.8274 97.1155 29.9854 97.1297 30.157C97.1439 30.3286 97.1075 30.5008 97.0279 30.6383C96.9476 30.7754 96.8309 30.8676 96.7011 30.8965C96.5713 30.9255 96.4379 30.8891 96.3276 30.7945C96.194 30.6986 96.0752 30.5706 95.9775 30.4172C95.9231 30.2651 95.8904 30.1013 95.881 29.9337L95.9708 29.8836C96.1122 30.0439 96.2623 30.1907 96.4197 30.3229C96.5095 30.3877 96.6868 30.4319 96.7384 30.3671C96.8708 30.2049 96.7541 30.0546 96.6441 29.9367C96.5341 29.8187 96.4758 29.7598 96.3995 29.6595C96.2999 29.547 96.2378 29.3878 96.2265 29.2159C96.2151 29.044 96.2555 28.8731 96.3389 28.7398C96.4247 28.6013 96.5483 28.5123 96.6833 28.492C96.8184 28.4716 96.9541 28.5214 97.0616 28.6307C97.203 28.7692 97.3354 28.9432 97.4993 29.1318Z" fill="#645F71"/>
</g>
<defs>
<clipPath id="clip0_523_3825">
<rect width="106" height="43" fill="white" transform="translate(0.400024)"/>
</clipPath>
</defs>
</svg>
